<svg width="16" height="16" viewBox="0 0 16 16" fill="none" xmlns="http://www.w3.org/2000/svg">
<path d="M8.08002 8.51999C8.03335 8.51332 7.97335 8.51332 7.92002 8.51999C6.74669 8.47999 5.81335 7.51999 5.81335 6.33999C5.81335 5.13332 6.78669 4.15332 8.00002 4.15332C9.20669 4.15332 10.1867 5.13332 10.1867 6.33999C10.18 7.51999 9.25335 8.47999 8.08002 8.51999Z" stroke="current-color" stroke-width="1.5" stroke-linecap="round" stroke-linejoin="round"/>
<path d="M12.4933 12.92C11.3067 14.0067 9.73332 14.6667 7.99999 14.6667C6.26665 14.6667 4.69332 14.0067 3.50665 12.92C3.57332 12.2934 3.97332 11.68 4.68665 11.2C6.51332 9.98671 9.49999 9.98671 11.3133 11.2C12.0267 11.68 12.4267 12.2934 12.4933 12.92Z" stroke="current-color" stroke-width="1.5" stroke-linecap="round" stroke-linejoin="round"/>
<path d="M7.99998 14.6667C11.6819 14.6667 14.6666 11.6819 14.6666 8.00004C14.6666 4.31814 11.6819 1.33337 7.99998 1.33337C4.31808 1.33337 1.33331 4.31814 1.33331 8.00004C1.33331 11.6819 4.31808 14.6667 7.99998 14.6667Z" stroke="current-color" stroke-width="1.5" stroke-linecap="round" stroke-linejoin="round"/>
</svg>
