<svg width="20" height="20" viewBox="0 0 20 20" fill="none" xmlns="http://www.w3.org/2000/svg">
<g id="Archive" clip-path="url(#clip0_453_429)">
<path id="Vector" d="M14.575 16.6668H5.40833C4.63333 16.6668 3.89166 16.3585 3.34999 15.8085C2.79999 15.2585 2.5 14.5168 2.5 13.7418V8.19184C2.51667 7.74184 2.64168 7.30014 2.85001 6.90848L4.39166 4.35014C4.59166 4.05847 4.85001 3.80848 5.16668 3.63348C5.47501 3.45848 5.81667 3.3585 6.175 3.3335H13.8083C14.1583 3.35016 14.5167 3.45015 14.825 3.63348C15.1333 3.80848 15.4 4.05847 15.6 4.35014L17.1417 6.90848C17.3667 7.30014 17.4917 7.74184 17.5 8.19184V13.7418C17.5 14.5168 17.1917 15.2585 16.6417 15.8085C16.0917 16.3585 15.3583 16.6668 14.5833 16.6668H14.575Z" stroke="current-color" stroke-width="1.8" stroke-miterlimit="10" stroke-linecap="round"/>
<path id="Vector_2" d="M2.5 8.3335L5.89167 9.00849C6.11667 9.06683 6.32501 9.18347 6.49167 9.35014C6.65834 9.50847 6.78333 9.70848 6.85 9.93348L7.09999 10.9252C7.24166 11.3585 7.50834 11.7418 7.86667 12.0168C8.225 12.2918 8.66667 12.4502 9.11667 12.4668H10.8583C11.3083 12.4502 11.75 12.3001 12.1083 12.0168C12.475 11.7418 12.7417 11.3585 12.875 10.9252L13.125 9.93348C13.1917 9.70848 13.325 9.50847 13.4917 9.35014C13.6583 9.19181 13.8667 9.07517 14.0917 9.01684L17.4833 8.34184" stroke="current-color" stroke-width="1.8" stroke-miterlimit="10" stroke-linecap="round"/>
</g>
<defs>
<clipPath id="clip0_453_429">
<rect width="20" height="20" fill="white"/>
</clipPath>
</defs>
</svg>
