<svg width="12" height="69" viewBox="0 0 12 69" fill="none" xmlns="http://www.w3.org/2000/svg">
<path d="M6 1C4.33333 1 3 1.81731 3 2.83894C3 3.86058 4.33333 4.67788 6 4.67788C7.66667 4.67788 9 3.86058 9 2.83894C9 1.81731 7.66667 1 6 1Z" fill="white"/>
<path d="M6 69L11.7735 59H0.226497L6 69ZM4 2.83894C4 2.80306 4.02514 2.61725 4.39761 2.38893C4.75616 2.16915 5.31826 2 6 2V0C5.01507 0 4.07718 0.239506 3.35239 0.683786C2.64153 1.11953 2 1.85319 2 2.83894H4ZM6 2C6.68174 2 7.24384 2.16915 7.60239 2.38893C7.97486 2.61725 8 2.80306 8 2.83894H10C10 1.85319 9.35847 1.11953 8.64761 0.683786C7.92282 0.239506 6.98493 0 6 0V2ZM8 2.83894C8 2.87483 7.97486 3.06064 7.60239 3.28895C7.24384 3.50874 6.68174 3.67788 6 3.67788V5.67788C6.98493 5.67788 7.92282 5.43838 8.64761 4.9941C9.35847 4.55835 10 3.82469 10 2.83894H8ZM6 3.67788C5.31826 3.67788 4.75616 3.50874 4.39761 3.28895C4.02514 3.06064 4 2.87483 4 2.83894H2C2 3.82469 2.64153 4.55835 3.35239 4.9941C4.07718 5.43838 5.01507 5.67788 6 5.67788V3.67788ZM5 4.67788V60H7V4.67788H5Z" fill="#3818D9"/>
</svg>
