<svg width="13" height="112" viewBox="0 0 13 112" fill="none" xmlns="http://www.w3.org/2000/svg">
<g id="card/integration --&#62; card/integration">
<path d="M6.5 1.06665C4.83333 1.06665 3.5 2.39998 3.5 4.06665C3.5 5.73332 4.83333 7.06665 6.5 7.06665C8.16667 7.06665 9.5 5.73332 9.5 4.06665C9.5 2.39998 8.16667 1.06665 6.5 1.06665Z" fill="white"/>
<path d="M6.5 112L12.2735 102H0.726497L6.5 112ZM4.5 4.06665C4.5 2.95227 5.38562 2.06665 6.5 2.06665V0.0666504C4.28105 0.0666504 2.5 1.8477 2.5 4.06665H4.5ZM6.5 2.06665C7.61438 2.06665 8.5 2.95227 8.5 4.06665H10.5C10.5 1.8477 8.71895 0.0666504 6.5 0.0666504V2.06665ZM8.5 4.06665C8.5 5.18103 7.61438 6.06665 6.5 6.06665V8.06665C8.71895 8.06665 10.5 6.2856 10.5 4.06665H8.5ZM6.5 6.06665C5.38562 6.06665 4.5 5.18103 4.5 4.06665H2.5C2.5 6.2856 4.28105 8.06665 6.5 8.06665V6.06665ZM5.5 7.06665V103H7.5V7.06665H5.5Z" fill="#3818D9"/>
</g>
</svg>
