<svg width="16" height="16" viewBox="0 0 16 16" fill="none" xmlns="http://www.w3.org/2000/svg">
<path d="M11.5313 7.124L11.4955 7.16758L11.5449 7.1948C12.1671 7.53775 12.6576 8.07782 12.9392 8.73003C13.2209 9.38225 13.2778 10.1096 13.1008 10.7977C12.9239 11.4857 12.5233 12.0954 11.9619 12.5309C11.4006 12.9663 10.7104 13.2028 10 13.2031C9.99999 13.2031 9.99999 13.2031 9.99998 13.2031H5C4.81352 13.2031 4.63468 13.129 4.50282 12.9972C4.37095 12.8653 4.29688 12.6865 4.29688 12.5V3C4.29688 2.81352 4.37095 2.63468 4.50282 2.50282C4.63468 2.37095 4.81352 2.29688 5 2.29688L9.24998 2.29687C9.24999 2.29687 9.24999 2.29688 9.25 2.29688C9.80937 2.29708 10.3572 2.45614 10.8297 2.75556C11.3022 3.05498 11.6799 3.48244 11.9189 3.98818C12.1579 4.49392 12.2484 5.05714 12.1798 5.61229C12.1111 6.16744 11.8862 6.69169 11.5313 7.124ZM5.75 3.70312H5.70312V3.75V6.75V6.79688H5.75H9.25C9.66026 6.79688 10.0537 6.6339 10.3438 6.34381C10.6339 6.05371 10.7969 5.66026 10.7969 5.25C10.7969 4.83974 10.6339 4.44629 10.3438 4.15619C10.0537 3.8661 9.66026 3.70312 9.25 3.70312H5.75ZM5.70312 11.75V11.7969H5.75H10C10.4766 11.7969 10.9336 11.6076 11.2706 11.2706C11.6076 10.9336 11.7969 10.4766 11.7969 10C11.7969 9.52344 11.6076 9.0664 11.2706 8.72942C10.9336 8.39244 10.4766 8.20312 10 8.20312H5.75H5.70312V8.25V11.75Z" fill="current-color" stroke="current-color" stroke-width="0.09375"/>
</svg>
