<svg width="16" height="16" viewBox="0 0 16 16" fill="none" xmlns="http://www.w3.org/2000/svg">
<g id="vuesax/linear/buildings">
<g id="buildings">
<path id="Vector" d="M8.66927 14.6666H3.33594C2.0026 14.6666 1.33594 13.9999 1.33594 12.6666V7.33325C1.33594 5.99992 2.0026 5.33325 3.33594 5.33325H6.66927V12.6666C6.66927 13.9999 7.33594 14.6666 8.66927 14.6666Z" stroke="current-color" stroke-width="1.5" stroke-miterlimit="10" stroke-linecap="round" stroke-linejoin="round"/>
<path id="Vector_2" d="M6.74259 2.66675C6.68926 2.86675 6.66927 3.08675 6.66927 3.33341V5.33341H3.33594V4.00008C3.33594 3.26675 3.93594 2.66675 4.66927 2.66675H6.74259Z" stroke="current-color" stroke-width="1.5" stroke-miterlimit="10" stroke-linecap="round" stroke-linejoin="round"/>
<path id="Vector_3" d="M9.33594 5.33325V8.66659" stroke="current-color" stroke-width="1.5" stroke-miterlimit="10" stroke-linecap="round" stroke-linejoin="round"/>
<path id="Vector_4" d="M12 5.33325V8.66659" stroke="current-color" stroke-width="1.5" stroke-miterlimit="10" stroke-linecap="round" stroke-linejoin="round"/>
<path id="Vector_5" d="M11.3359 11.3333H10.0026C9.63594 11.3333 9.33594 11.6333 9.33594 11.9999V14.6666H12.0026V11.9999C12.0026 11.6333 11.7026 11.3333 11.3359 11.3333Z" stroke="current-color" stroke-width="1.5" stroke-miterlimit="10" stroke-linecap="round" stroke-linejoin="round"/>
<path id="Vector_6" d="M4 8.66675V11.3334" stroke="current-color" stroke-width="1.5" stroke-miterlimit="10" stroke-linecap="round" stroke-linejoin="round"/>
<path id="Vector_7" d="M6.66406 12.6666V3.33325C6.66406 1.99992 7.33073 1.33325 8.66406 1.33325H12.6641C13.9974 1.33325 14.6641 1.99992 14.6641 3.33325V12.6666C14.6641 13.9999 13.9974 14.6666 12.6641 14.6666H8.66406C7.33073 14.6666 6.66406 13.9999 6.66406 12.6666Z" stroke="current-color" stroke-width="1.5" stroke-miterlimit="10" stroke-linecap="round" stroke-linejoin="round"/>
</g>
</g>
</svg>
