<svg width="15" height="14" viewBox="0 0 15 14" fill="none" xmlns="http://www.w3.org/2000/svg">
<g id="vuesax/linear/buildings-2">
<g id="buildings-2">
<path id="Vector" d="M4.24167 10.5001H2.75418C1.92001 10.5001 1.5 10.0801 1.5 9.2459V2.42093C1.5 1.58676 1.92001 1.16675 2.75418 1.16675H5.26251C6.09667 1.16675 6.51665 1.58676 6.51665 2.42093V3.50008" stroke="#3818D9" stroke-width="1.5" stroke-miterlimit="10" stroke-linecap="round" stroke-linejoin="round"/>
<path id="Vector_2" d="M10.4663 4.91166V11.4217C10.4663 12.3608 9.99969 12.8333 9.06053 12.8333H5.65384C4.71468 12.8333 4.24219 12.3608 4.24219 11.4217V4.91166C4.24219 3.97249 4.71468 3.5 5.65384 3.5H9.06053C9.99969 3.5 10.4663 3.97249 10.4663 4.91166Z" stroke="#3818D9" stroke-width="1.5" stroke-miterlimit="10" stroke-linecap="round" stroke-linejoin="round"/>
<path id="Vector_3" d="M8.15625 3.50008V2.42093C8.15625 1.58676 8.57623 1.16675 9.4104 1.16675H11.9187C12.7529 1.16675 13.1729 1.58676 13.1729 2.42093V9.2459C13.1729 10.0801 12.7529 10.5001 11.9187 10.5001H10.4721" stroke="#3818D9" stroke-width="1.5" stroke-miterlimit="10" stroke-linecap="round" stroke-linejoin="round"/>
<path id="Vector_4" d="M6.17188 6.41675H8.50521" stroke="#3818D9" stroke-width="1.5" stroke-miterlimit="10" stroke-linecap="round" stroke-linejoin="round"/>
<path id="Vector_5" d="M6.17188 8.16675H8.50521" stroke="#3818D9" stroke-width="1.5" stroke-miterlimit="10" stroke-linecap="round" stroke-linejoin="round"/>
<path id="Vector_6" d="M7.33594 12.8333V11.0833" stroke="#3818D9" stroke-width="1.5" stroke-miterlimit="10" stroke-linecap="round" stroke-linejoin="round"/>
</g>
</g>
</svg>
