<svg width="14" height="14" viewBox="0 0 14 14" fill="none" xmlns="http://www.w3.org/2000/svg">
<path d="M4.66663 1.16669V2.91669" stroke="current-color" stroke-width="1.5" stroke-miterlimit="10" stroke-linecap="round" stroke-linejoin="round"/>
<path d="M9.33337 1.16669V2.91669" stroke="current-color" stroke-width="1.5" stroke-miterlimit="10" stroke-linecap="round" stroke-linejoin="round"/>
<path d="M9.33333 2.04169C11.2758 2.14669 12.25 2.88752 12.25 5.62919V9.23419C12.25 11.6375 11.6667 12.8392 8.75 12.8392H5.25C2.33333 12.8392 1.75 11.6375 1.75 9.23419V5.62919C1.75 2.88752 2.72417 2.15252 4.66667 2.04169H9.33333Z" stroke="current-color" stroke-width="1.5" stroke-miterlimit="10" stroke-linecap="round" stroke-linejoin="round"/>
<path d="M12.1042 10.2667H1.89587" stroke="current-color" stroke-width="1.5" stroke-miterlimit="10" stroke-linecap="round" stroke-linejoin="round"/>
<mask id="path-5-inside-1_251_10087" fill="white">
<path d="M6.99996 4.8125C6.28246 4.8125 5.67579 5.20333 5.67579 5.96167C5.67579 6.32333 5.84496 6.5975 6.10163 6.7725C5.74579 6.9825 5.54163 7.32083 5.54163 7.7175C5.54163 8.44083 6.09579 8.89 6.99996 8.89C7.89829 8.89 8.45829 8.44083 8.45829 7.7175C8.45829 7.32083 8.25413 6.97667 7.89246 6.7725C8.15496 6.59167 8.31829 6.32333 8.31829 5.96167C8.31829 5.20333 7.71746 4.8125 6.99996 4.8125ZM6.99996 6.46917C6.69663 6.46917 6.47496 6.28833 6.47496 6.0025C6.47496 5.71083 6.69663 5.54167 6.99996 5.54167C7.30329 5.54167 7.52496 5.71083 7.52496 6.0025C7.52496 6.28833 7.30329 6.46917 6.99996 6.46917ZM6.99996 8.16667C6.61496 8.16667 6.33496 7.97417 6.33496 7.62417C6.33496 7.27417 6.61496 7.0875 6.99996 7.0875C7.38496 7.0875 7.66496 7.28 7.66496 7.62417C7.66496 7.97417 7.38496 8.16667 6.99996 8.16667Z"/>
</mask>
<path d="M6.99996 4.8125C6.28246 4.8125 5.67579 5.20333 5.67579 5.96167C5.67579 6.32333 5.84496 6.5975 6.10163 6.7725C5.74579 6.9825 5.54163 7.32083 5.54163 7.7175C5.54163 8.44083 6.09579 8.89 6.99996 8.89C7.89829 8.89 8.45829 8.44083 8.45829 7.7175C8.45829 7.32083 8.25413 6.97667 7.89246 6.7725C8.15496 6.59167 8.31829 6.32333 8.31829 5.96167C8.31829 5.20333 7.71746 4.8125 6.99996 4.8125ZM6.99996 6.46917C6.69663 6.46917 6.47496 6.28833 6.47496 6.0025C6.47496 5.71083 6.69663 5.54167 6.99996 5.54167C7.30329 5.54167 7.52496 5.71083 7.52496 6.0025C7.52496 6.28833 7.30329 6.46917 6.99996 6.46917ZM6.99996 8.16667C6.61496 8.16667 6.33496 7.97417 6.33496 7.62417C6.33496 7.27417 6.61496 7.0875 6.99996 7.0875C7.38496 7.0875 7.66496 7.28 7.66496 7.62417C7.66496 7.97417 7.38496 8.16667 6.99996 8.16667Z" fill="current-color"/>
<path d="M6.10163 6.7725L6.60988 7.63371L7.96602 6.83336L6.66496 5.94627L6.10163 6.7725ZM7.89246 6.7725L7.32515 5.94899L6.00747 6.85673L7.40086 7.64332L7.89246 6.7725ZM6.99996 3.8125C6.47194 3.8125 5.90388 3.95514 5.44527 4.32092C4.96008 4.7079 4.67579 5.28588 4.67579 5.96167H6.67579C6.67579 5.93376 6.67855 5.91571 6.68071 5.90576C6.68282 5.89597 6.68481 5.89181 6.68501 5.89139C6.68521 5.89096 6.68507 5.89123 6.68508 5.89122C6.68519 5.89108 6.68709 5.8887 6.69236 5.8845C6.71645 5.86528 6.81048 5.8125 6.99996 5.8125V3.8125ZM4.67579 5.96167C4.67579 6.67691 5.02791 7.25074 5.53829 7.59873L6.66496 5.94627C6.65898 5.94219 6.65787 5.94052 6.65969 5.94248C6.66167 5.94461 6.66544 5.94926 6.66927 5.95625C6.67319 5.9634 6.67534 5.96967 6.67625 5.97327C6.67712 5.97677 6.67579 5.97363 6.67579 5.96167H4.67579ZM5.59337 5.91129C4.95731 6.28667 4.54163 6.93941 4.54163 7.7175H6.54163C6.54163 7.70462 6.54321 7.69751 6.54401 7.69457C6.5448 7.69168 6.54576 7.68938 6.5474 7.68662C6.54972 7.68273 6.56345 7.66111 6.60988 7.63371L5.59337 5.91129ZM4.54163 7.7175C4.54163 8.3583 4.79949 8.9469 5.30429 9.35366C5.78407 9.74027 6.39416 9.89 6.99996 9.89V7.89C6.70159 7.89 6.58251 7.81514 6.55917 7.79634C6.55335 7.79164 6.55139 7.78908 6.55137 7.78905C6.55126 7.78891 6.55129 7.78894 6.55136 7.78905C6.55143 7.78916 6.55131 7.78899 6.55102 7.78837C6.55059 7.78743 6.54848 7.78266 6.54633 7.77231C6.54415 7.76178 6.54163 7.74398 6.54163 7.7175H4.54163ZM6.99996 9.89C7.60418 9.89 8.21303 9.73966 8.69234 9.35455C9.19641 8.94954 9.45829 8.36169 9.45829 7.7175H7.45829C7.45829 7.74328 7.45581 7.76052 7.4537 7.77061C7.45163 7.78051 7.44959 7.78508 7.44917 7.786C7.44878 7.78685 7.4487 7.7869 7.44849 7.78716C7.44822 7.78751 7.44592 7.79042 7.43966 7.79545C7.41439 7.81576 7.29408 7.89 6.99996 7.89V9.89ZM9.45829 7.7175C9.45829 6.94483 9.04631 6.27553 8.38405 5.90168L7.40086 7.64332C7.44054 7.66572 7.45116 7.68338 7.45248 7.68559C7.45376 7.68773 7.4548 7.69 7.45573 7.69343C7.45668 7.69692 7.45829 7.70451 7.45829 7.7175H9.45829ZM8.45976 7.59601C8.97309 7.24238 9.31829 6.67594 9.31829 5.96167H7.31829C7.31829 5.97636 7.3167 5.98039 7.31768 5.97641C7.31812 5.97462 7.31898 5.97163 7.32048 5.96777C7.32198 5.96391 7.32386 5.95981 7.3261 5.95571C7.33081 5.94708 7.33528 5.94172 7.33699 5.93988C7.33844 5.93831 7.33551 5.94186 7.32515 5.94899L8.45976 7.59601ZM9.31829 5.96167C9.31829 5.28936 9.03825 4.71131 8.55404 4.32277C8.09609 3.95529 7.52819 3.8125 6.99996 3.8125V5.8125C7.18923 5.8125 7.2805 5.86513 7.30234 5.88265C7.30482 5.88464 7.30642 5.88614 7.30734 5.88705C7.30824 5.88796 7.30863 5.88845 7.30868 5.88851C7.30873 5.88856 7.30863 5.88845 7.30851 5.88825C7.30838 5.88804 7.30843 5.88809 7.30866 5.88857C7.30893 5.88915 7.31104 5.89365 7.31324 5.90396C7.31549 5.91445 7.31829 5.9331 7.31829 5.96167H9.31829ZM6.99996 5.46917C7.04217 5.46917 7.15785 5.48259 7.27886 5.58753C7.41356 5.70434 7.47496 5.86764 7.47496 6.0025H5.47496C5.47496 6.42319 5.64719 6.81983 5.96855 7.09851C6.27623 7.36533 6.65442 7.46917 6.99996 7.46917V5.46917ZM7.47496 6.0025C7.47496 6.13165 7.41504 6.30342 7.26858 6.427C7.14141 6.5343 7.02594 6.54167 6.99996 6.54167V4.54167C6.67065 4.54167 6.29268 4.63362 5.97884 4.89842C5.64571 5.17949 5.47496 5.58168 5.47496 6.0025H7.47496ZM6.99996 6.54167C6.97398 6.54167 6.85851 6.5343 6.73134 6.427C6.58488 6.30342 6.52496 6.13165 6.52496 6.0025H8.52496C8.52496 5.58168 8.35421 5.17949 8.02108 4.89842C7.70724 4.63362 7.32927 4.54167 6.99996 4.54167V6.54167ZM6.52496 6.0025C6.52496 5.86764 6.58636 5.70434 6.72105 5.58753C6.84206 5.48259 6.95775 5.46917 6.99996 5.46917V7.46917C7.3455 7.46917 7.72369 7.36533 8.03136 7.09851C8.35273 6.81983 8.52496 6.42319 8.52496 6.0025H6.52496ZM6.99996 7.16667C6.96076 7.16667 7.03194 7.15558 7.13702 7.23731C7.19314 7.28096 7.24789 7.34389 7.28636 7.4241C7.32463 7.50388 7.33496 7.57594 7.33496 7.62417H5.33496C5.33496 8.09636 5.53857 8.5278 5.90914 8.81602C6.25048 9.0815 6.65416 9.16667 6.99996 9.16667V7.16667ZM7.33496 7.62417C7.33496 7.67241 7.32461 7.74607 7.28498 7.82802C7.24509 7.91051 7.18839 7.97466 7.1309 8.01866C7.02437 8.1002 6.95429 8.0875 6.99996 8.0875V6.0875C6.66063 6.0875 6.25805 6.16813 5.91527 6.4305C5.54022 6.71758 5.33496 7.1503 5.33496 7.62417H7.33496ZM6.99996 8.0875C7.03905 8.0875 6.96975 8.09858 6.86594 8.01849C6.81042 7.97564 6.75504 7.91307 6.71564 7.83194C6.67631 7.75094 6.66496 7.67636 6.66496 7.62417H8.66496C8.66496 7.14922 8.45679 6.71983 8.08773 6.43506C7.74767 6.17267 7.34587 6.0875 6.99996 6.0875V8.0875ZM6.66496 7.62417C6.66496 7.57594 6.67529 7.50388 6.71356 7.4241C6.75203 7.34389 6.80678 7.28096 6.86289 7.23731C6.96798 7.15558 7.03916 7.16667 6.99996 7.16667V9.16667C7.34576 9.16667 7.74944 9.0815 8.09078 8.81602C8.46135 8.5278 8.66496 8.09636 8.66496 7.62417H6.66496Z" fill="current-color" mask="url(#path-5-inside-1_251_10087)"/>
</svg>
