<svg width="14" height="15" viewBox="0 0 14 15" fill="none" xmlns="http://www.w3.org/2000/svg">
<path d="M4.66663 1.16669V2.91669" stroke="current-color" stroke-width="1.5" stroke-miterlimit="10" stroke-linecap="round" stroke-linejoin="round"/>
<path d="M9.33337 1.16669V2.91669" stroke="current-color" stroke-width="1.5" stroke-miterlimit="10" stroke-linecap="round" stroke-linejoin="round"/>
<path d="M2.04163 5.30249H11.9583" stroke="current-color" stroke-width="1.5" stroke-miterlimit="10" stroke-linecap="round" stroke-linejoin="round"/>
<path d="M12.8333 11.0833C12.8333 11.5208 12.7108 11.935 12.495 12.285C12.0925 12.9617 11.3516 13.4167 10.5 13.4167C9.91079 13.4167 9.37413 13.2008 8.96579 12.8333C8.78496 12.6817 8.62746 12.495 8.50496 12.285C8.28913 11.935 8.16663 11.5208 8.16663 11.0833C8.16663 9.79417 9.21079 8.75 10.5 8.75C11.2 8.75 11.8241 9.05916 12.25 9.54332C12.6116 9.95749 12.8333 10.4942 12.8333 11.0833Z" stroke="current-color" stroke-width="1.5" stroke-miterlimit="10" stroke-linecap="round" stroke-linejoin="round"/>
<path d="M9.58997 11.0833L10.1675 11.6608L11.41 10.5117" stroke="current-color" stroke-width="1.5" stroke-linecap="round" stroke-linejoin="round"/>
<path d="M12.25 4.95835V9.54334C11.8242 9.05918 11.2 8.75002 10.5 8.75002C9.21083 8.75002 8.16667 9.79419 8.16667 11.0834C8.16667 11.5209 8.28917 11.935 8.505 12.285C8.6275 12.495 8.785 12.6817 8.96583 12.8334H4.66667C2.625 12.8334 1.75 11.6667 1.75 9.91669V4.95835C1.75 3.20835 2.625 2.04169 4.66667 2.04169H9.33333C11.375 2.04169 12.25 3.20835 12.25 4.95835Z" stroke="current-color" stroke-width="1.5" stroke-miterlimit="10" stroke-linecap="round" stroke-linejoin="round"/>
<path d="M6.99732 7.99168H7.00256" stroke="current-color" stroke-width="2" stroke-linecap="round" stroke-linejoin="round"/>
<path d="M4.83839 7.99168H4.84363" stroke="current-color" stroke-width="2" stroke-linecap="round" stroke-linejoin="round"/>
<path d="M4.83839 9.74168H4.84363" stroke="current-color" stroke-width="2" stroke-linecap="round" stroke-linejoin="round"/>
</svg>
