<svg width="15" height="14" viewBox="0 0 15 14" fill="none" xmlns="http://www.w3.org/2000/svg">
<g id="vuesax/linear/call-outgoing">
<g id="call-outgoing">
<g id="call-outgoing_2">
<path id="Vector" d="M13.1492 10.6926C13.1492 10.9026 13.1025 11.1184 13.0033 11.3284C12.9042 11.5384 12.7758 11.7367 12.6067 11.9234C12.3208 12.2384 12.0058 12.4659 11.65 12.6117C11.3 12.7576 10.9208 12.8334 10.5125 12.8334C9.9175 12.8334 9.28167 12.6934 8.61083 12.4076C7.94 12.1217 7.26917 11.7367 6.60417 11.2526C5.93333 10.7626 5.2975 10.2201 4.69083 9.61925C4.09 9.01258 3.5475 8.37675 3.06333 7.71175C2.585 7.04675 2.2 6.38175 1.92 5.72258C1.64 5.05758 1.5 4.42175 1.5 3.81508C1.5 3.41841 1.57 3.03925 1.71 2.68925C1.85 2.33341 2.07167 2.00675 2.38083 1.71508C2.75417 1.34758 3.1625 1.16675 3.59417 1.16675C3.7575 1.16675 3.92083 1.20175 4.06667 1.27175C4.21833 1.34175 4.3525 1.44675 4.4575 1.59841L5.81083 3.50591C5.91583 3.65175 5.99167 3.78591 6.04417 3.91425C6.09667 4.03675 6.12583 4.15925 6.12583 4.27008C6.12583 4.41008 6.085 4.55008 6.00333 4.68425C5.9275 4.81841 5.81667 4.95841 5.67667 5.09841L5.23333 5.55925C5.16917 5.62341 5.14 5.69925 5.14 5.79258C5.14 5.83925 5.14583 5.88008 5.1575 5.92675C5.175 5.97341 5.1925 6.00841 5.20417 6.04341C5.30917 6.23591 5.49 6.48675 5.74667 6.79008C6.00917 7.09341 6.28917 7.40258 6.5925 7.71175C6.9075 8.02091 7.21083 8.30675 7.52 8.56925C7.82333 8.82591 8.07417 9.00091 8.2725 9.10591C8.30167 9.11758 8.33667 9.13508 8.3775 9.15258C8.42417 9.17008 8.47083 9.17591 8.52333 9.17591C8.6225 9.17591 8.69833 9.14091 8.7625 9.07675L9.20583 8.63925C9.35167 8.49341 9.49167 8.38258 9.62583 8.31258C9.76 8.23091 9.89417 8.19008 10.04 8.19008C10.1508 8.19008 10.2675 8.21341 10.3958 8.26591C10.5242 8.31841 10.6583 8.39425 10.8042 8.49341L12.735 9.86425C12.8867 9.96925 12.9917 10.0917 13.0558 10.2376C13.1142 10.3834 13.1492 10.5292 13.1492 10.6926Z" stroke="current-color" stroke-width="1.5" stroke-miterlimit="10"/>
<path id="Vector_2" d="M12.0031 2.3335H9.20312M12.0031 2.3335V5.1335V2.3335Z" stroke="current-color" stroke-width="1.5" stroke-linecap="round" stroke-linejoin="round"/>
</g>
</g>
</g>
</svg>
