<svg width="28" height="28" viewBox="0 0 28 28" fill="none" xmlns="http://www.w3.org/2000/svg">
<g id="vuesax/linear/call">
<g id="call">
<g id="call_2">
<path id="Vector" d="M25.6343 21.385C25.6343 21.805 25.5409 22.2367 25.3426 22.6567C25.1443 23.0767 24.8876 23.4733 24.5493 23.8467C23.9776 24.4767 23.3476 24.9317 22.6359 25.2233C21.9359 25.515 21.1776 25.6667 20.3609 25.6667C19.1709 25.6667 17.8993 25.3867 16.5576 24.815C15.2159 24.2433 13.8743 23.4733 12.5443 22.505C11.2026 21.525 9.93094 20.44 8.7176 19.2383C7.51594 18.025 6.43094 16.7533 5.4626 15.4233C4.50594 14.0933 3.73594 12.7633 3.17594 11.445C2.61594 10.115 2.33594 8.84334 2.33594 7.63001C2.33594 6.83668 2.47594 6.07834 2.75594 5.37834C3.03594 4.66668 3.47927 4.01334 4.0976 3.43001C4.84427 2.69501 5.66094 2.33334 6.52427 2.33334C6.85094 2.33334 7.1776 2.40334 7.46927 2.54334C7.7726 2.68334 8.04094 2.89334 8.25094 3.19668L10.9576 7.01168C11.1676 7.30334 11.3193 7.57168 11.4243 7.82834C11.5293 8.07334 11.5876 8.31834 11.5876 8.54001C11.5876 8.82001 11.5059 9.10001 11.3426 9.36834C11.1909 9.63668 10.9693 9.91668 10.6893 10.1967L9.8026 11.1183C9.67427 11.2467 9.61594 11.3983 9.61594 11.585C9.61594 11.6783 9.6276 11.76 9.65094 11.8533C9.68594 11.9467 9.72094 12.0167 9.74427 12.0867C9.95427 12.4717 10.3159 12.9733 10.8293 13.58C11.3543 14.1867 11.9143 14.805 12.5209 15.4233C13.1509 16.0417 13.7576 16.6133 14.3759 17.1383C14.9826 17.6517 15.4843 18.0017 15.8809 18.2117C15.9393 18.235 16.0093 18.27 16.0909 18.305C16.1843 18.34 16.2776 18.3517 16.3826 18.3517C16.5809 18.3517 16.7326 18.2817 16.8609 18.1533L17.7476 17.2783C18.0393 16.9867 18.3193 16.765 18.5876 16.625C18.8559 16.4617 19.1243 16.38 19.4159 16.38C19.6376 16.38 19.8709 16.4267 20.1276 16.5317C20.3843 16.6367 20.6526 16.7883 20.9443 16.9867L24.8059 19.7283C25.1093 19.9383 25.3193 20.1833 25.4476 20.475C25.5643 20.7667 25.6343 21.0583 25.6343 21.385Z" stroke="#BA1717" stroke-width="1.5" stroke-miterlimit="10"/>
</g>
</g>
</g>
</svg>
