<svg width="17" height="16" viewBox="0 0 17 16" fill="none" xmlns="http://www.w3.org/2000/svg">
<g id="vuesax/linear/call">
<g id="call">
<g id="call_2">
<path id="Vector" d="M15.579 12.22C15.579 12.46 15.5256 12.7067 15.4123 12.9467C15.299 13.1867 15.1523 13.4133 14.959 13.6267C14.6323 13.9867 14.2723 14.2467 13.8656 14.4133C13.4656 14.58 13.0323 14.6667 12.5656 14.6667C11.8856 14.6667 11.159 14.5067 10.3923 14.18C9.62562 13.8533 8.85896 13.4133 8.09896 12.86C7.33229 12.3 6.60562 11.68 5.91229 10.9933C5.22562 10.3 4.60562 9.57333 4.05229 8.81333C3.50562 8.05333 3.06563 7.29333 2.74563 6.54C2.42563 5.78 2.26562 5.05333 2.26562 4.36C2.26562 3.90667 2.34562 3.47333 2.50562 3.07333C2.66562 2.66667 2.91896 2.29333 3.27229 1.96C3.69896 1.54 4.16563 1.33333 4.65896 1.33333C4.84563 1.33333 5.03229 1.37333 5.19896 1.45333C5.37229 1.53333 5.52563 1.65333 5.64563 1.82667L7.19229 4.00667C7.31229 4.17333 7.39896 4.32667 7.45896 4.47333C7.51896 4.61333 7.55229 4.75333 7.55229 4.88C7.55229 5.04 7.50563 5.2 7.41229 5.35333C7.32563 5.50667 7.19896 5.66667 7.03896 5.82667L6.53229 6.35333C6.45896 6.42667 6.42562 6.51333 6.42562 6.62C6.42562 6.67333 6.43229 6.72 6.44563 6.77333C6.46563 6.82667 6.48563 6.86667 6.49896 6.90667C6.61896 7.12667 6.82562 7.41333 7.11896 7.76C7.41896 8.10667 7.73896 8.46 8.08562 8.81333C8.44562 9.16667 8.79229 9.49333 9.14563 9.79333C9.49229 10.0867 9.77896 10.2867 10.0056 10.4067C10.039 10.42 10.079 10.44 10.1256 10.46C10.179 10.48 10.2323 10.4867 10.2923 10.4867C10.4056 10.4867 10.4923 10.4467 10.5656 10.3733L11.0723 9.87333C11.239 9.70667 11.399 9.58 11.5523 9.5C11.7056 9.40667 11.859 9.36 12.0256 9.36C12.1523 9.36 12.2856 9.38667 12.4323 9.44667C12.579 9.50667 12.7323 9.59333 12.899 9.70667L15.1056 11.2733C15.279 11.3933 15.399 11.5333 15.4723 11.7C15.539 11.8667 15.579 12.0333 15.579 12.22Z" stroke="current-color" stroke-width="1.5" stroke-miterlimit="10"/>
</g>
</g>
</g>
</svg>
