<svg width="28" height="28" viewBox="0 0 28 28" fill="none" xmlns="http://www.w3.org/2000/svg">
    <path
        d="M25.6318 21.3847C25.6318 21.8047 25.5385 22.2363 25.3402 22.6563C25.1418 23.0763 24.8852 23.473 24.5468 23.8463C23.9752 24.4763 23.3452 24.9313 22.6335 25.223C21.9335 25.5147 21.1752 25.6663 20.3585 25.6663C19.1685 25.6663 17.8968 25.3863 16.5552 24.8147C15.2135 24.243 13.8718 23.473 12.5418 22.5047C11.2002 21.5247 9.9285 20.4397 8.71516 19.238C7.5135 18.0247 6.4285 16.753 5.46016 15.423C4.5035 14.093 3.7335 12.763 3.1735 11.4447C2.6135 10.1147 2.3335 8.84301 2.3335 7.62967C2.3335 6.83634 2.4735 6.07801 2.7535 5.37801C3.0335 4.66634 3.47683 4.01301 4.09516 3.42967C4.84183 2.69467 5.6585 2.33301 6.52183 2.33301C6.8485 2.33301 7.17516 2.40301 7.46683 2.54301C7.77016 2.68301 8.0385 2.89301 8.2485 3.19634L10.9552 7.01134C11.1652 7.30301 11.3168 7.57134 11.4218 7.82801C11.5268 8.07301 11.5852 8.31801 11.5852 8.53967C11.5852 8.81967 11.5035 9.09967 11.3402 9.36801C11.1885 9.63634 10.9668 9.91634 10.6868 10.1963L9.80016 11.118C9.67183 11.2463 9.6135 11.398 9.6135 11.5847C9.6135 11.678 9.62516 11.7597 9.6485 11.853C9.6835 11.9463 9.7185 12.0163 9.74183 12.0863C9.95183 12.4713 10.3135 12.973 10.8268 13.5797C11.3518 14.1863 11.9118 14.8047 12.5185 15.423C13.1485 16.0413 13.7552 16.613 14.3735 17.138C14.9802 17.6513 15.4818 18.0013 15.8785 18.2113C15.9368 18.2347 16.0068 18.2697 16.0885 18.3047C16.1818 18.3397 16.2752 18.3513 16.3802 18.3513C16.5785 18.3513 16.7302 18.2813 16.8585 18.153L17.7452 17.278C18.0368 16.9863 18.3168 16.7647 18.5852 16.6247C18.8535 16.4613 19.1218 16.3797 19.4135 16.3797C19.6352 16.3797 19.8685 16.4263 20.1252 16.5313C20.3818 16.6363 20.6502 16.788 20.9418 16.9863L24.8035 19.728C25.1068 19.938 25.3168 20.183 25.4452 20.4747C25.5618 20.7663 25.6318 21.058 25.6318 21.3847Z"
        stroke="#3818D9" stroke-width="1.5" stroke-miterlimit="10" />
</svg>