<svg width="28" height="28" viewBox="0 0 28 28" fill="none" xmlns="http://www.w3.org/2000/svg">
<g id="vuesax/linear/category">
<g id="category">
<path id="Vector" d="M5.8335 11.6667H8.16683C10.5002 11.6667 11.6668 10.5 11.6668 8.16666V5.83333C11.6668 3.49999 10.5002 2.33333 8.16683 2.33333H5.8335C3.50016 2.33333 2.3335 3.49999 2.3335 5.83333V8.16666C2.3335 10.5 3.50016 11.6667 5.8335 11.6667Z" stroke="current-color" stroke-width="2.4" stroke-miterlimit="10" stroke-linecap="round" stroke-linejoin="round"/>
<path id="Vector_2" d="M19.8335 11.6667H22.1668C24.5002 11.6667 25.6668 10.5 25.6668 8.16666V5.83333C25.6668 3.49999 24.5002 2.33333 22.1668 2.33333H19.8335C17.5002 2.33333 16.3335 3.49999 16.3335 5.83333V8.16666C16.3335 10.5 17.5002 11.6667 19.8335 11.6667Z" stroke="current-color" stroke-width="2.4" stroke-miterlimit="10" stroke-linecap="round" stroke-linejoin="round"/>
<path id="Vector_3" d="M19.8335 25.6667H22.1668C24.5002 25.6667 25.6668 24.5 25.6668 22.1667V19.8333C25.6668 17.5 24.5002 16.3333 22.1668 16.3333H19.8335C17.5002 16.3333 16.3335 17.5 16.3335 19.8333V22.1667C16.3335 24.5 17.5002 25.6667 19.8335 25.6667Z" stroke="current-color" stroke-width="2.4" stroke-miterlimit="10" stroke-linecap="round" stroke-linejoin="round"/>
<path id="Vector_4" d="M5.8335 25.6667H8.16683C10.5002 25.6667 11.6668 24.5 11.6668 22.1667V19.8333C11.6668 17.5 10.5002 16.3333 8.16683 16.3333H5.8335C3.50016 16.3333 2.3335 17.5 2.3335 19.8333V22.1667C2.3335 24.5 3.50016 25.6667 5.8335 25.6667Z" stroke="current-color" stroke-width="2.4" stroke-miterlimit="10" stroke-linecap="round" stroke-linejoin="round"/>
</g>
</g>
</svg>
