<svg width="20" height="20" viewBox="0 0 20 20" fill="none" xmlns="http://www.w3.org/2000/svg">
<g id="vuesax/linear/chart">
<g id="chart">
<path id="Vector" d="M3.3474 4.97478C2.28906 6.37478 1.66406 8.11644 1.66406 9.99978C1.66406 14.5998 5.3974 18.3331 9.9974 18.3331C14.5974 18.3331 18.3307 14.5998 18.3307 9.99978C18.3307 5.39978 14.5974 1.66644 9.9974 1.66644" stroke="#3818D9" stroke-width="1.5" stroke-linecap="round" stroke-linejoin="round"/>
<path id="Vector_2" d="M4.16406 9.99978C4.16406 13.2248 6.7724 15.8331 9.9974 15.8331C13.2224 15.8331 15.8307 13.2248 15.8307 9.99978C15.8307 6.77478 13.2224 4.16644 9.9974 4.16644" stroke="#3818D9" stroke-width="1.5" stroke-linecap="round" stroke-linejoin="round"/>
<path id="Vector_3" d="M10 13.3331C11.8417 13.3331 13.3333 11.8414 13.3333 9.99978C13.3333 8.15811 11.8417 6.66644 10 6.66644" stroke="#3818D9" stroke-width="1.5" stroke-linecap="round" stroke-linejoin="round"/>
</g>
</g>
</svg>
