<svg width="16" height="16" viewBox="0 0 16 16" fill="none" xmlns="http://www.w3.org/2000/svg">
<g id="Close" clip-path="url(#clip0_793_8842)">
<path id="Vector" d="M12.1966 3.80714C11.9366 3.54714 11.5166 3.54714 11.2566 3.80714L7.99656 7.06047L4.73656 3.80047C4.47656 3.54047 4.05656 3.54047 3.79656 3.80047C3.53656 4.06047 3.53656 4.48047 3.79656 4.74047L7.05656 8.00047L3.79656 11.2605C3.53656 11.5205 3.53656 11.9405 3.79656 12.2005C4.05656 12.4605 4.47656 12.4605 4.73656 12.2005L7.99656 8.94047L11.2566 12.2005C11.5166 12.4605 11.9366 12.4605 12.1966 12.2005C12.4566 11.9405 12.4566 11.5205 12.1966 11.2605L8.93656 8.00047L12.1966 4.74047C12.4499 4.48714 12.4499 4.06047 12.1966 3.80714Z" fill="#BA1717"/>
</g>
<defs>
<clipPath id="clip0_793_8842">
<rect width="16" height="16" fill="white"/>
</clipPath>
</defs>
</svg>
