<svg width="16" height="16" viewBox="0 0 16 16" fill="none" xmlns="http://www.w3.org/2000/svg">
<path d="M2.09764 8.03509L5.96887 11.4726C6.10877 11.5969 6.19353 11.7717 6.20452 11.9586C6.21551 12.1454 6.15183 12.329 6.02748 12.4689C5.90313 12.6088 5.7283 12.6936 5.54146 12.7045C5.35461 12.7155 5.17105 12.6519 5.03116 12.5275L0.531158 8.5275L0.53102 8.52738C0.456203 8.4614 0.396283 8.38025 0.355239 8.28933C0.314196 8.19841 0.292969 8.09979 0.292969 8.00004C0.292969 7.90028 0.314196 7.80167 0.355239 7.71075C0.396283 7.61982 0.456203 7.53868 0.53102 7.47269L0.531157 7.47257L5.03116 3.47257C5.17105 3.34822 5.35461 3.28454 5.54146 3.29553C5.7283 3.30652 5.90313 3.39129 6.02748 3.53118C6.15183 3.67107 6.21551 3.85463 6.20452 4.04148C6.19353 4.22833 6.10877 4.40315 5.96887 4.5275L2.09764 7.96499L2.05817 8.00004L2.09764 8.03509ZM15.4689 7.47257L15.469 7.47269C15.5438 7.53868 15.6037 7.61982 15.6448 7.71075C15.6858 7.80167 15.7071 7.90028 15.7071 8.00004C15.7071 8.09979 15.6858 8.19841 15.6448 8.28933C15.6037 8.38025 15.5438 8.4614 15.469 8.52738L15.4689 8.5275L10.9689 12.5275C10.8996 12.5891 10.8189 12.6364 10.7313 12.6668C10.6438 12.6972 10.5511 12.71 10.4586 12.7045C10.3661 12.6991 10.2755 12.6755 10.1921 12.6351C10.1087 12.5946 10.0341 12.5382 9.97255 12.4689C9.91098 12.3996 9.86365 12.3189 9.83328 12.2314C9.8029 12.1438 9.79007 12.0511 9.79551 11.9586C9.80095 11.8661 9.82456 11.7755 9.865 11.6921C9.90543 11.6088 9.96189 11.5341 10.0312 11.4726L13.9005 8.03508L13.94 8.00004L13.9005 7.96499L10.0312 4.5275C9.96189 4.46593 9.90543 4.39132 9.865 4.30793C9.82456 4.22454 9.80095 4.134 9.79551 4.04148C9.79007 3.94896 9.8029 3.85628 9.83328 3.76872C9.86365 3.68116 9.91098 3.60045 9.97255 3.53118C10.0341 3.46191 10.1087 3.40545 10.1921 3.36502C10.2755 3.32458 10.3661 3.30097 10.4586 3.29553C10.5511 3.29009 10.6438 3.30292 10.7313 3.3333C10.8189 3.36368 10.8996 3.411 10.9689 3.47257L15.4689 7.47257Z" fill="current-color" stroke="current-color" stroke-width="0.09375"/>
</svg>
