<svg width="28" height="28" viewBox="0 0 28 28" fill="none" xmlns="http://www.w3.org/2000/svg">
<g id="Layer 2">
<g id="Layer 1">
<path id="Vector" d="M13.9964 28C21.7264 28 27.9929 21.732 27.9929 14C27.9929 6.26801 21.7264 0 13.9964 0C6.26641 0 0 6.26801 0 14C0 21.732 6.26641 28 13.9964 28Z" fill="#282850"/>
<path id="Vector_2" d="M18.663 9.33334H9.33203V18.6667H18.663V9.33334Z" fill="#8886FF"/>
<path id="Vector_3" d="M18.663 9.33334H9.33203V18.6667H18.663V9.33334Z" fill="#8886FF"/>
<path id="Vector_4" fill-rule="evenodd" clip-rule="evenodd" d="M15.293 27.9409C18.7668 27.6192 21.9953 26.0114 24.3457 23.4326C26.6961 20.8539 27.999 17.4901 27.999 14.0005C27.999 10.511 26.6961 7.14717 24.3457 4.56842C21.9953 1.98968 18.7668 0.381888 15.293 0.0601578V27.9409Z" fill="#8886FF"/>
</g>
</g>
</svg>
