<svg width="29" height="28" viewBox="0 0 29 28" fill="none" xmlns="http://www.w3.org/2000/svg">
<g id="vuesax/linear/cpu-charge">
<g id="cpu-charge">
<path id="Vector" d="M11.3693 23.3333H16.9693C21.6359 23.3333 23.5026 21.4666 23.5026 16.8V11.2C23.5026 6.53329 21.6359 4.66663 16.9693 4.66663H11.3693C6.7026 4.66663 4.83594 6.53329 4.83594 11.2V16.8C4.83594 21.4666 6.7026 23.3333 11.3693 23.3333Z" stroke="current-color" stroke-width="1.5" stroke-linecap="round" stroke-linejoin="round"/>
<path id="Vector_2" d="M12.4193 19.8333H15.9193C18.8359 19.8333 20.0026 18.6666 20.0026 15.75V12.25C20.0026 9.33329 18.8359 8.16663 15.9193 8.16663H12.4193C9.5026 8.16663 8.33594 9.33329 8.33594 12.25V15.75C8.33594 18.6666 9.5026 19.8333 12.4193 19.8333Z" stroke="current-color" stroke-width="1.5" stroke-linecap="round" stroke-linejoin="round"/>
<path id="Vector_3" d="M9.51172 4.66671V2.33337" stroke="current-color" stroke-width="1.5" stroke-linecap="round" stroke-linejoin="round"/>
<path id="Vector_4" d="M14.168 4.66671V2.33337" stroke="current-color" stroke-width="1.5" stroke-linecap="round" stroke-linejoin="round"/>
<path id="Vector_5" d="M18.8359 4.66671V2.33337" stroke="current-color" stroke-width="1.5" stroke-linecap="round" stroke-linejoin="round"/>
<path id="Vector_6" d="M23.5 9.33337H25.8333" stroke="current-color" stroke-width="1.5" stroke-linecap="round" stroke-linejoin="round"/>
<path id="Vector_7" d="M23.5 14H25.8333" stroke="current-color" stroke-width="1.5" stroke-linecap="round" stroke-linejoin="round"/>
<path id="Vector_8" d="M23.5 18.6666H25.8333" stroke="current-color" stroke-width="1.5" stroke-linecap="round" stroke-linejoin="round"/>
<path id="Vector_9" d="M18.8359 23.3334V25.6667" stroke="current-color" stroke-width="1.5" stroke-linecap="round" stroke-linejoin="round"/>
<path id="Vector_10" d="M14.1797 23.3334V25.6667" stroke="current-color" stroke-width="1.5" stroke-linecap="round" stroke-linejoin="round"/>
<path id="Vector_11" d="M9.51172 23.3334V25.6667" stroke="current-color" stroke-width="1.5" stroke-linecap="round" stroke-linejoin="round"/>
<path id="Vector_12" d="M2.5 9.33337H4.83333" stroke="current-color" stroke-width="1.5" stroke-linecap="round" stroke-linejoin="round"/>
<path id="Vector_13" d="M2.5 14H4.83333" stroke="current-color" stroke-width="1.5" stroke-linecap="round" stroke-linejoin="round"/>
<path id="Vector_14" d="M2.5 18.6666H4.83333" stroke="current-color" stroke-width="1.5" stroke-linecap="round" stroke-linejoin="round"/>
<path id="Vector_15" d="M14.1665 11.3167L13.0698 13.23C12.8248 13.65 13.0232 14 13.5132 14H14.8198C15.3098 14 15.5082 14.35 15.2632 14.77L14.1665 16.6833" stroke="current-color" stroke-width="1.5" stroke-linecap="round" stroke-linejoin="round"/>
</g>
</g>
</svg>
