<svg width="29" height="28" viewBox="0 0 29 28" fill="none" xmlns="http://www.w3.org/2000/svg">
<g id="vuesax/linear/cpu-setting">
<g id="cpu-setting">
<path id="Vector" d="M23.8346 11.2C23.8346 6.53329 21.968 4.66663 17.3013 4.66663H11.7013C7.03464 4.66663 5.16797 6.53329 5.16797 11.2V16.8C5.16797 21.4666 7.03464 23.3333 11.7013 23.3333" stroke="current-color" stroke-width="1.5" stroke-linecap="round" stroke-linejoin="round"/>
<path id="Vector_2" d="M19.5763 9.33329C18.9346 8.51663 17.8613 8.16663 16.2513 8.16663H12.7513C9.83464 8.16663 8.66797 9.33329 8.66797 12.25V15.75C8.66797 17.36 9.01797 18.4333 9.82297 19.075" stroke="current-color" stroke-width="1.5" stroke-linecap="round" stroke-linejoin="round"/>
<path id="Vector_3" d="M9.84375 4.66671V2.33337" stroke="current-color" stroke-width="1.5" stroke-linecap="round" stroke-linejoin="round"/>
<path id="Vector_4" d="M14.5 4.66671V2.33337" stroke="current-color" stroke-width="1.5" stroke-linecap="round" stroke-linejoin="round"/>
<path id="Vector_5" d="M19.168 4.66671V2.33337" stroke="current-color" stroke-width="1.5" stroke-linecap="round" stroke-linejoin="round"/>
<path id="Vector_6" d="M23.832 9.33337H26.1654" stroke="current-color" stroke-width="1.5" stroke-linecap="round" stroke-linejoin="round"/>
<path id="Vector_7" d="M9.84375 23.3334V25.6667" stroke="current-color" stroke-width="1.5" stroke-linecap="round" stroke-linejoin="round"/>
<path id="Vector_8" d="M2.83203 9.33337H5.16536" stroke="current-color" stroke-width="1.5" stroke-linecap="round" stroke-linejoin="round"/>
<path id="Vector_9" d="M2.83203 14H5.16536" stroke="current-color" stroke-width="1.5" stroke-linecap="round" stroke-linejoin="round"/>
<path id="Vector_10" d="M2.83203 18.6666H5.16536" stroke="current-color" stroke-width="1.5" stroke-linecap="round" stroke-linejoin="round"/>
<path id="Vector_11" d="M19.9956 21.6883C21.0201 21.6883 21.8506 20.8578 21.8506 19.8333C21.8506 18.8088 21.0201 17.9783 19.9956 17.9783C18.9711 17.9783 18.1406 18.8088 18.1406 19.8333C18.1406 20.8578 18.9711 21.6883 19.9956 21.6883Z" stroke="current-color" stroke-width="1.5" stroke-miterlimit="10" stroke-linecap="round" stroke-linejoin="round"/>
<path id="Vector_12" d="M13.8125 20.37V19.285C13.8125 18.6434 14.3375 18.1184 14.9792 18.1184C16.0992 18.1184 16.5542 17.325 15.9942 16.3567C15.6675 15.7967 15.8658 15.0734 16.4258 14.7584L17.4875 14.14C17.9775 13.8484 18.6075 14.0234 18.8992 14.5134L18.9692 14.63C19.5292 15.5984 20.4392 15.5984 20.9992 14.63L21.0692 14.5134C21.3608 14.0234 21.9908 13.86 22.4808 14.14L23.5425 14.7584C24.1025 15.085 24.3008 15.7967 23.9742 16.3567C23.4142 17.325 23.8692 18.1184 24.9892 18.1184C25.6308 18.1184 26.1558 18.6434 26.1558 19.285V20.37C26.1558 21.0117 25.6308 21.5367 24.9892 21.5367C23.8692 21.5367 23.4142 22.33 23.9742 23.2984C24.3008 23.8584 24.1025 24.5817 23.5425 24.8967L22.4808 25.515C21.9908 25.8067 21.3608 25.6317 21.0692 25.1417L20.9992 25.025C20.4392 24.0567 19.5292 24.0567 18.9692 25.025L18.8992 25.1417C18.6075 25.6317 17.9775 25.795 17.4875 25.515L16.4258 24.8967C15.8658 24.57 15.6675 23.8584 15.9942 23.2984C16.5542 22.33 16.0992 21.5367 14.9792 21.5367C14.3375 21.5484 13.8125 21.0234 13.8125 20.37Z" stroke="current-color" stroke-width="1.5" stroke-miterlimit="10" stroke-linecap="round" stroke-linejoin="round"/>
</g>
</g>
</svg>
