<svg width="16" height="16" viewBox="0 0 16 16" fill="none" xmlns="http://www.w3.org/2000/svg">
<g id="vuesax/linear/chart">
<g id="chart">
<path id="Vector" d="M2.6826 3.97992C1.83594 5.09992 1.33594 6.49325 1.33594 7.99992C1.33594 11.6799 4.3226 14.6666 8.0026 14.6666C11.6826 14.6666 14.6693 11.6799 14.6693 7.99992C14.6693 4.31992 11.6826 1.33325 8.0026 1.33325" stroke="current-color" stroke-width="1.5" stroke-linecap="round" stroke-linejoin="round"/>
<path id="Vector_2" d="M3.33594 7.99992C3.33594 10.5799 5.4226 12.6666 8.0026 12.6666C10.5826 12.6666 12.6693 10.5799 12.6693 7.99992C12.6693 5.41992 10.5826 3.33325 8.0026 3.33325" stroke="current-color" stroke-width="1.5" stroke-linecap="round" stroke-linejoin="round"/>
<path id="Vector_3" d="M8 10.6666C9.47333 10.6666 10.6667 9.47325 10.6667 7.99992C10.6667 6.52659 9.47333 5.33325 8 5.33325" stroke="current-color" stroke-width="1.5" stroke-linecap="round" stroke-linejoin="round"/>
</g>
</g>
</svg>
