<svg width="14" height="14" viewBox="0 0 14 14" fill="none" xmlns="http://www.w3.org/2000/svg">
<path d="M9.63659 3.29584L7.82826 1.89584C7.59492 1.6625 7.06993 1.54584 6.71993 1.54584H4.50326C3.80326 1.54584 3.04493 2.07084 2.86993 2.77084L1.46993 7.02917C1.17826 7.84584 1.70326 8.54584 2.57826 8.54584H4.91159C5.26159 8.54584 5.55326 8.8375 5.49493 9.24584L5.20326 11.1125C5.08659 11.6375 5.43659 12.2208 5.96159 12.3958C6.42826 12.5708 7.01159 12.3375 7.24492 11.9875L9.63659 8.42917" stroke="current-color" stroke-width="1.5" stroke-miterlimit="10"/>
<path d="M12.6116 3.29583V9.0125C12.6116 9.82917 12.2616 10.1208 11.4449 10.1208H10.8616C10.0449 10.1208 9.69495 9.82917 9.69495 9.0125V3.29583C9.69495 2.47917 10.0449 2.1875 10.8616 2.1875H11.4449C12.2616 2.1875 12.6116 2.47917 12.6116 3.29583Z" stroke="current-color" stroke-width="1.5" stroke-linecap="round" stroke-linejoin="round"/>
</svg>
