<svg width="16" height="16" viewBox="0 0 16 16" fill="none" xmlns="http://www.w3.org/2000/svg">
<g id="Done">
<path id="Vector" d="M13.3196 3.99345C13.1464 3.99861 12.982 4.071 12.8612 4.19528L5.99924 11.0573L3.80393 8.86194C3.7425 8.79796 3.66892 8.74688 3.5875 8.71169C3.50608 8.6765 3.41846 8.65791 3.32977 8.65701C3.24107 8.6561 3.15309 8.67291 3.07097 8.70643C2.98885 8.73996 2.91425 8.78953 2.85153 8.85225C2.78881 8.91497 2.73924 8.98958 2.70571 9.07169C2.67219 9.15381 2.65538 9.24179 2.65628 9.33049C2.65719 9.41918 2.67578 9.5068 2.71097 9.58822C2.74616 9.66964 2.79724 9.74322 2.86122 9.80465L5.52789 12.4713C5.65292 12.5963 5.82246 12.6665 5.99924 12.6665C6.17602 12.6665 6.34557 12.5963 6.4706 12.4713L13.8039 5.13799C13.9003 5.04434 13.9661 4.92378 13.9927 4.7921C14.0193 4.66042 14.0056 4.52377 13.9532 4.40004C13.9009 4.27632 13.8123 4.1713 13.6993 4.09875C13.5862 4.02619 13.4538 3.98949 13.3196 3.99345Z" fill="#3818D9"/>
</g>
</svg>
