<svg width="16" height="16" viewBox="0 0 16 16" fill="none" xmlns="http://www.w3.org/2000/svg">
<g id="vuesax/linear/emoji-sad">
<g id="emoji-sad">
<path id="Vector" d="M6.0026 14.6668H10.0026C13.3359 14.6668 14.6693 13.3335 14.6693 10.0002V6.00016C14.6693 2.66683 13.3359 1.3335 10.0026 1.3335H6.0026C2.66927 1.3335 1.33594 2.66683 1.33594 6.00016V10.0002C1.33594 13.3335 2.66927 14.6668 6.0026 14.6668Z" stroke="white" stroke-width="1.5" stroke-linecap="round" stroke-linejoin="round"/>
<path id="Vector_2" d="M4.66406 5.8335C5.33073 5.16683 6.4174 5.16683 7.09073 5.8335" stroke="white" stroke-width="1.5" stroke-miterlimit="10" stroke-linecap="round" stroke-linejoin="round"/>
<path id="Vector_3" d="M8.90625 5.8335C9.57292 5.16683 10.6596 5.16683 11.3329 5.8335" stroke="white" stroke-width="1.5" stroke-miterlimit="10" stroke-linecap="round" stroke-linejoin="round"/>
<path id="Vector_4" d="M5.6 11.8002H10.4C10.7333 11.8002 11 11.5335 11 11.2002C11 9.54019 9.66 8.2002 8 8.2002C6.34 8.2002 5 9.54019 5 11.2002C5 11.5335 5.26667 11.8002 5.6 11.8002Z" stroke="white" stroke-width="1.5" stroke-miterlimit="10" stroke-linecap="round" stroke-linejoin="round"/>
</g>
</g>
</svg>
