<svg width="14" height="14" viewBox="0 0 14 14" fill="none" xmlns="http://www.w3.org/2000/svg">
<path d="M5.14507 3.14821C3.78507 4.67488 2.85174 6.86821 2.76507 7.07488L1.2584 6.42821C0.825069 6.24155 0.718403 5.67488 1.05174 5.34155L3.0584 3.33488C3.37174 3.02155 3.82507 2.88155 4.26507 2.96821L5.14507 3.14821ZM6.1384 9.92155C6.3384 10.1215 6.63174 10.1749 6.88507 10.0549C7.6584 9.69488 9.3184 8.84821 10.3917 7.77488C13.4517 4.71488 13.4784 2.22155 13.2984 1.15488C13.2517 0.888213 13.0384 0.67488 12.7717 0.628213C11.7051 0.448213 9.21174 0.47488 6.15174 3.53488C5.0784 4.60821 4.2384 6.26821 3.87174 7.04155C3.75174 7.29488 3.81174 7.59488 4.00507 7.78821L6.1384 9.92155ZM10.7851 8.78821C9.2584 10.1482 7.06507 11.0815 6.8584 11.1682L7.50507 12.6749C7.69174 13.1082 8.2584 13.2149 8.59174 12.8815L10.5984 10.8749C10.9117 10.5615 11.0517 10.1082 10.9651 9.66821L10.7851 8.78821ZM4.9784 10.5215C5.11174 11.2282 4.8784 11.8815 4.43174 12.3282C3.9184 12.8415 2.32507 13.2215 1.29174 13.4215C0.831736 13.5082 0.425069 13.1015 0.511736 12.6415C0.711736 11.6082 1.08507 10.0149 1.60507 9.50155C2.05174 9.05488 2.70507 8.82155 3.41174 8.95488C4.19174 9.10155 4.83174 9.74155 4.9784 10.5215ZM7.68507 4.91488C7.68507 4.18155 8.28507 3.58155 9.0184 3.58155C9.75174 3.58155 10.3517 4.18155 10.3517 4.91488C10.3517 5.64821 9.75174 6.24821 9.0184 6.24821C8.28507 6.24821 7.68507 5.64821 7.68507 4.91488Z" fill="#4A3AFF"/>
</svg>
