<svg width="24" height="24" viewBox="0 0 24 24" fill="none" xmlns="http://www.w3.org/2000/svg">
<path d="M14.5319 9.46998L9.47188 14.53C8.82188 13.88 8.42188 12.99 8.42188 12C8.42188 10.02 10.0219 8.41998 12.0019 8.41998C12.9919 8.41998 13.8819 8.81998 14.5319 9.46998Z" stroke="#3818D9" stroke-width="1.5" stroke-linecap="round" stroke-linejoin="round"/>
<path d="M17.8198 5.76998C16.0698 4.44998 14.0698 3.72998 11.9998 3.72998C8.46984 3.72998 5.17984 5.80998 2.88984 9.40998C1.98984 10.82 1.98984 13.19 2.88984 14.6C3.67984 15.84 4.59984 16.91 5.59984 17.77" stroke="#3818D9" stroke-width="1.5" stroke-linecap="round" stroke-linejoin="round"/>
<path d="M8.42188 19.53C9.56187 20.01 10.7719 20.27 12.0019 20.27C15.5319 20.27 18.8219 18.19 21.1119 14.59C22.0119 13.18 22.0119 10.81 21.1119 9.39999C20.7819 8.87999 20.4219 8.38999 20.0519 7.92999" stroke="#3818D9" stroke-width="1.5" stroke-linecap="round" stroke-linejoin="round"/>
<path d="M15.5114 12.7C15.2514 14.11 14.1014 15.26 12.6914 15.52" stroke="#3818D9" stroke-width="1.5" stroke-linecap="round" stroke-linejoin="round"/>
<path d="M9.47 14.53L2 22" stroke="#3818D9" stroke-width="1.5" stroke-linecap="round" stroke-linejoin="round"/>
<path d="M22.0013 2L14.5312 9.47" stroke="#3818D9" stroke-width="1.5" stroke-linecap="round" stroke-linejoin="round"/>
</svg>
