<svg width="24" height="24" viewBox="0 0 24 24" fill="none" xmlns="http://www.w3.org/2000/svg">
<path d="M15.5819 12C15.5819 13.98 13.9819 15.58 12.0019 15.58C10.0219 15.58 8.42188 13.98 8.42188 12C8.42188 10.02 10.0219 8.41998 12.0019 8.41998C13.9819 8.41998 15.5819 10.02 15.5819 12Z" stroke="#3818D9" stroke-width="1.5" stroke-linecap="round" stroke-linejoin="round"/>
<path d="M11.9998 20.27C15.5298 20.27 18.8198 18.19 21.1098 14.59C22.0098 13.18 22.0098 10.81 21.1098 9.39997C18.8198 5.79997 15.5298 3.71997 11.9998 3.71997C8.46984 3.71997 5.17984 5.79997 2.88984 9.39997C1.98984 10.81 1.98984 13.18 2.88984 14.59C5.17984 18.19 8.46984 20.27 11.9998 20.27Z" stroke="#3818D9" stroke-width="1.5" stroke-linecap="round" stroke-linejoin="round"/>
</svg>
