<svg width="15" height="14" viewBox="0 0 15 14" fill="none" xmlns="http://www.w3.org/2000/svg">
<g id="Social Icons" clip-path="url(#clip0_359_9700)">
<path id="Vector" d="M7.66406 0C3.7981 0 0.664062 3.13404 0.664062 7C0.664062 10.2827 2.92422 13.0374 5.97314 13.7939V9.1392H4.52974V7H5.97314V6.07824C5.97314 3.69572 7.05142 2.5914 9.39054 2.5914C9.83406 2.5914 10.5993 2.67848 10.9123 2.76528V4.70428C10.7471 4.68692 10.4601 4.67824 10.1037 4.67824C8.95598 4.67824 8.51246 5.11308 8.51246 6.24344V7H10.7989L10.4061 9.1392H8.51246V13.9488C11.9786 13.5302 14.6643 10.579 14.6643 7C14.6641 3.13404 11.53 0 7.66406 0Z" fill="current-color"/>
</g>
<defs>
<clipPath id="clip0_359_9700">
<rect width="14" height="14" fill="current-color" transform="translate(0.664062)"/>
</clipPath>
</defs>
</svg>
