<svg width="16" height="16" viewBox="0 0 16 16" fill="none" xmlns="http://www.w3.org/2000/svg">
<g id="vuesax/linear/filter">
<g id="filter">
<path id="Vector" d="M3.60091 1.40002H12.4009C13.1342 1.40002 13.7342 2.00002 13.7342 2.73336V4.20002C13.7342 4.73336 13.4009 5.40002 13.0676 5.73336L10.2009 8.26669C9.80091 8.60002 9.53424 9.26669 9.53424 9.80002V12.6667C9.53424 13.0667 9.26758 13.6 8.93424 13.8L8.00091 14.4C7.13425 14.9334 5.93424 14.3334 5.93424 13.2667V9.73336C5.93424 9.26669 5.66758 8.66669 5.40091 8.33336L2.86758 5.66669C2.53424 5.33336 2.26758 4.73336 2.26758 4.33336V2.80002C2.26758 2.00002 2.86758 1.40002 3.60091 1.40002Z" stroke="current-color" stroke-width="1.5" stroke-miterlimit="10" stroke-linecap="round" stroke-linejoin="round"/>
<path id="Vector_2" d="M7.28667 1.40002L4 6.66669" stroke="current-color" stroke-width="1.5" stroke-miterlimit="10" stroke-linecap="round" stroke-linejoin="round"/>
</g>
</g>
</svg>
