<svg width="16" height="16" viewBox="0 0 16 16" fill="none" xmlns="http://www.w3.org/2000/svg">
<g id="vuesax/linear/flash-circle">
<g id="flash-circle">
<path id="Vector" d="M8.0026 14.6668C11.6845 14.6668 14.6693 11.6821 14.6693 8.00016C14.6693 4.31826 11.6845 1.3335 8.0026 1.3335C4.32071 1.3335 1.33594 4.31826 1.33594 8.00016C1.33594 11.6821 4.32071 14.6668 8.0026 14.6668Z" stroke="#current-color" stroke-width="1.5" stroke-linecap="round" stroke-linejoin="round"/>
<g id="Group">
<path id="Vector_2" d="M5.78625 7.9402L6.88625 8.21351L6.25293 10.7736C6.10626 11.3736 6.39958 11.5735 6.90625 11.2202L10.3596 8.82688C10.7796 8.53354 10.7196 8.19353 10.2196 8.06687L9.11959 7.79355L9.75293 5.23353C9.8996 4.63353 9.60626 4.43355 9.09959 4.78688L5.64626 7.18023C5.22626 7.47356 5.28625 7.81353 5.78625 7.9402Z" stroke="#current-color" stroke-width="1.5" stroke-miterlimit="10" stroke-linecap="round" stroke-linejoin="round"/>
</g>
</g>
</g>
</svg>
