<svg width="16" height="16" viewBox="0 0 16 16" fill="none" xmlns="http://www.w3.org/2000/svg">
<g id="vuesax/linear/gift">
<g id="gift">
<path id="Vector" d="M13.3151 6.6665H2.64844V11.9998C2.64844 13.9998 3.3151 14.6665 5.3151 14.6665H10.6484C12.6484 14.6665 13.3151 13.9998 13.3151 11.9998V6.6665Z" stroke="#current-color" stroke-width="1.5" stroke-miterlimit="10" stroke-linecap="round" stroke-linejoin="round"/>
<path id="Vector_2" d="M14.3307 4.66683V5.3335C14.3307 6.06683 13.9774 6.66683 12.9974 6.66683H2.9974C1.9774 6.66683 1.66406 6.06683 1.66406 5.3335V4.66683C1.66406 3.9335 1.9774 3.3335 2.9974 3.3335H12.9974C13.9774 3.3335 14.3307 3.9335 14.3307 4.66683Z" stroke="#current-color" stroke-width="1.5" stroke-miterlimit="10" stroke-linecap="round" stroke-linejoin="round"/>
<path id="Vector_3" d="M7.75921 3.33329H4.07921C3.85254 3.08663 3.85921 2.70663 4.09921 2.46663L5.04587 1.51996C5.29254 1.27329 5.69921 1.27329 5.94587 1.51996L7.75921 3.33329Z" stroke="#current-color" stroke-width="1.5" stroke-miterlimit="10" stroke-linecap="round" stroke-linejoin="round"/>
<path id="Vector_4" d="M11.9144 3.33329H8.23438L10.0477 1.51996C10.2944 1.27329 10.701 1.27329 10.9477 1.51996L11.8944 2.46663C12.1344 2.70663 12.141 3.08663 11.9144 3.33329Z" stroke="#current-color" stroke-width="1.5" stroke-miterlimit="10" stroke-linecap="round" stroke-linejoin="round"/>
<path id="Vector_5" d="M5.96094 6.6665V10.0932C5.96094 10.6265 6.5476 10.9398 6.99427 10.6532L7.62094 10.2398C7.8476 10.0932 8.13427 10.0932 8.35427 10.2398L8.9476 10.6398C9.3876 10.9332 9.98094 10.6198 9.98094 10.0865V6.6665H5.96094Z" stroke="#current-color" stroke-width="1.5" stroke-miterlimit="10" stroke-linecap="round" stroke-linejoin="round"/>
</g>
</g>
</svg>
