<svg width="17" height="17" viewBox="0 0 17 17" fill="none" xmlns="http://www.w3.org/2000/svg">
<g id="vuesax/linear/global">
<g id="global">
<path id="Vector" d="M8.80143 15.1666C12.4833 15.1666 15.4681 12.1819 15.4681 8.49998C15.4681 4.81808 12.4833 1.83331 8.80143 1.83331C5.11953 1.83331 2.13477 4.81808 2.13477 8.49998C2.13477 12.1819 5.11953 15.1666 8.80143 15.1666Z" stroke="#3818D9" stroke-width="1.5" stroke-linecap="round" stroke-linejoin="round"/>
<path id="Vector_2" d="M6.13451 2.5H6.80117C5.50117 6.39333 5.50117 10.6067 6.80117 14.5H6.13451" stroke="#3818D9" stroke-width="1.5" stroke-linecap="round" stroke-linejoin="round"/>
<path id="Vector_3" d="M10.8008 2.5C12.1008 6.39333 12.1008 10.6067 10.8008 14.5" stroke="#3818D9" stroke-width="1.5" stroke-linecap="round" stroke-linejoin="round"/>
<path id="Vector_4" d="M2.80078 11.1667V10.5C6.69411 11.8 10.9074 11.8 14.8008 10.5V11.1667" stroke="#3818D9" stroke-width="1.5" stroke-linecap="round" stroke-linejoin="round"/>
<path id="Vector_5" d="M2.80078 6.50002C6.69411 5.20002 10.9074 5.20002 14.8008 6.50002" stroke="#3818D9" stroke-width="1.5" stroke-linecap="round" stroke-linejoin="round"/>
</g>
</g>
</svg>
