<svg width="14" height="14" viewBox="0 0 14 14" fill="none" xmlns="http://www.w3.org/2000/svg">
<path d="M6.99996 12.8334C10.2216 12.8334 12.8333 10.2217 12.8333 7.00002C12.8333 3.77836 10.2216 1.16669 6.99996 1.16669C3.7783 1.16669 1.16663 3.77836 1.16663 7.00002C1.16663 10.2217 3.7783 12.8334 6.99996 12.8334Z" stroke="#7E7E7E" stroke-width="1.5" stroke-linecap="round" stroke-linejoin="round"/>
<path d="M4.66664 1.75H5.24998C4.11248 5.15667 4.11248 8.84333 5.24998 12.25H4.66664" stroke="#7E7E7E" stroke-width="1.5" stroke-linecap="round" stroke-linejoin="round"/>
<path d="M8.75 1.75C9.8875 5.15667 9.8875 8.84333 8.75 12.25" stroke="#7E7E7E" stroke-width="1.5" stroke-linecap="round" stroke-linejoin="round"/>
<path d="M1.75 9.33333V8.75C5.15667 9.8875 8.84333 9.8875 12.25 8.75V9.33333" stroke="#7E7E7E" stroke-width="1.5" stroke-linecap="round" stroke-linejoin="round"/>
<path d="M1.75 5.24998C5.15667 4.11248 8.84333 4.11248 12.25 5.24998" stroke="#7E7E7E" stroke-width="1.5" stroke-linecap="round" stroke-linejoin="round"/>
</svg>
