<svg width="28" height="28" viewBox="0 0 28 28" fill="none" xmlns="http://www.w3.org/2000/svg">
<g clip-path="url(#clip0_509_6952)">
<path d="M21.3722 6.63135L14.7407 5.89453L6.6354 6.63135L5.89844 13.9998L6.63526 21.3683L14.0037 22.2894L21.3722 21.3683L22.109 13.8157L21.3722 6.63135Z" fill="white"/>
<path d="M9.65592 18.0638C9.10516 17.6916 8.7238 17.1483 8.51562 16.4298L9.7941 15.903C9.91016 16.3451 10.1127 16.6877 10.402 16.9309C10.6894 17.1741 11.0394 17.2938 11.4483 17.2938C11.8665 17.2938 12.2258 17.1666 12.5259 16.9124C12.8261 16.6582 12.9773 16.3339 12.9773 15.9416C12.9773 15.5401 12.8188 15.2121 12.502 14.958C12.1852 14.7039 11.7873 14.5766 11.312 14.5766H10.5733V13.3112H11.2364C11.6453 13.3112 11.9899 13.2007 12.2699 12.9797C12.5499 12.7586 12.6899 12.4565 12.6899 12.0715C12.6899 11.7289 12.5646 11.4562 12.3141 11.2518C12.0636 11.0474 11.7467 10.9442 11.3617 10.9442C10.9859 10.9442 10.6874 11.0437 10.4664 11.2445C10.2453 11.4453 10.085 11.6921 9.9838 11.9831L8.71834 11.4563C8.88592 10.981 9.19365 10.561 9.64487 10.1981C10.0962 9.83525 10.6727 9.65283 11.3727 9.65283C11.8903 9.65283 12.3564 9.75237 12.7691 9.95313C13.1817 10.1539 13.5059 10.4321 13.7399 10.7857C13.9738 11.1412 14.0899 11.5392 14.0899 11.9812C14.0899 12.4325 13.9812 12.8138 13.7638 13.1269C13.5464 13.4401 13.2793 13.6795 12.9624 13.8472V13.9227C13.3716 14.0914 13.727 14.3684 13.9903 14.7241C14.2574 15.0833 14.3918 15.5125 14.3918 16.0136C14.3918 16.5147 14.2647 16.9622 14.0105 17.3547C13.7562 17.7471 13.4044 18.0565 12.9587 18.2812C12.5111 18.5059 12.0082 18.6201 11.45 18.6201C10.8035 18.6219 10.2067 18.4359 9.65592 18.0638ZM17.5014 11.7197L16.105 12.7347L15.4032 11.67L17.9214 9.85359H18.8867V18.4212H17.5014V11.7197Z" fill="#1A73E8"/>
<path d="M21.3721 28.0002L28.0036 21.3687L24.6878 19.895L21.3721 21.3687L19.8984 24.6844L21.3721 28.0002Z" fill="#EA4335"/>
<path d="M5.15625 24.6844L6.62989 28.0002H21.3667V21.3687H6.62989L5.15625 24.6844Z" fill="#34A853"/>
<path d="M2.21046 0C0.98924 0 0 0.98924 0 2.21046V21.3683L3.31576 22.842L6.63152 21.3683V6.63152H21.3683L22.842 3.31576L21.3685 0H2.21046Z" fill="#4285F4"/>
<path d="M0 21.3687V25.7897C0 27.0111 0.98924 28.0002 2.21046 28.0002H6.63152V21.3687H0Z" fill="#188038"/>
<path d="M21.3672 6.63135V21.3682H27.9987V6.63135L24.6829 5.15771L21.3672 6.63135Z" fill="#FBBC04"/>
<path d="M27.9987 6.63152V2.21046C27.9987 0.9891 27.0095 0 25.7882 0H21.3672V6.63152H27.9987Z" fill="#1967D2"/>
</g>
<defs>
<clipPath id="clip0_509_6952">
<rect width="28" height="28" fill="white"/>
</clipPath>
</defs>
</svg>
