<svg width="28" height="28" viewBox="0 0 28 28" fill="none" xmlns="http://www.w3.org/2000/svg">
<g id="icons">
<path id="Page" d="M6.41406 1.1665C5.44756 1.1665 4.66406 1.95001 4.66406 2.9165V25.0832C4.66406 26.0497 5.44756 26.8332 6.41406 26.8332H21.5807C22.5472 26.8332 23.3307 26.0497 23.3307 25.0832V8.1665L16.3307 1.1665H6.41406Z" fill="#20A464"/>
<path id="Shadow" d="M6.41406 26.8332C5.44756 26.8332 4.66406 26.0497 4.66406 25.0832V24.7915C4.66406 25.758 5.44756 26.5415 6.41406 26.5415H21.5807C22.5472 26.5415 23.3307 25.758 23.3307 24.7915V25.0832C23.3307 26.0497 22.5472 26.8332 21.5807 26.8332H6.41406Z" fill="#149456"/>
<path id="Highlight" d="M6.41406 1.1665C5.44756 1.1665 4.66406 1.95001 4.66406 2.9165V3.20817C4.66406 2.24167 5.44756 1.45817 6.41406 1.45817H16.6224L16.3307 1.1665H6.41406Z" fill="#38AE74"/>
<path id="Fold Shadow" d="M23.3353 14.146V8.16683L22.3144 7.146H17.3915C17.0017 7.146 16.8065 7.61725 17.0821 7.89286L23.3353 14.146Z" fill="url(#paint0_linear_503_11545)"/>
<path id="Fold" d="M16.3359 1.1665L23.3359 8.1665H18.0859C17.1194 8.1665 16.3359 7.383 16.3359 6.4165V1.1665Z" fill="#8ED1B1"/>
<path id="Icon" fill-rule="evenodd" clip-rule="evenodd" d="M18.6693 13.7085V22.1668H9.33594V13.7085H18.6693ZM13.4193 14.8752H10.5026V16.3335H13.4193V14.8752ZM14.5859 16.3335V14.8752H17.5026V16.3335H14.5859ZM13.4193 17.2085H10.5026V18.6668H13.4193V17.2085ZM14.5859 18.6668V17.2085H17.5026V18.6668H14.5859ZM13.4193 19.5418H10.5026V21.0002H13.4193V19.5418ZM14.5859 21.0002V19.5418H17.5026V21.0002H14.5859Z" fill="white"/>
</g>
<defs>
<linearGradient id="paint0_linear_503_11545" x1="20.1442" y1="14.146" x2="20.1442" y2="7.00016" gradientUnits="userSpaceOnUse">
<stop stop-color="#20A464"/>
<stop offset="1" stop-color="#207E55"/>
</linearGradient>
</defs>
</svg>
