<svg width="16" height="16" viewBox="0 0 16 16" fill="none" xmlns="http://www.w3.org/2000/svg">
<path d="M15.7475 6.75244L15.7476 6.75257C15.8132 6.8179 15.8653 6.89556 15.9009 6.98108C15.9364 7.0666 15.9547 7.1583 15.9547 7.25091C15.9547 7.34352 15.9364 7.43522 15.9009 7.52074C15.8653 7.60626 15.8132 7.68392 15.7476 7.74925L15.7475 7.74932L12.8507 10.6456L12.8506 10.6457C12.7392 10.7578 12.6066 10.8466 12.4607 10.9071C12.3147 10.9676 12.1582 10.9985 12.0002 10.9981C11.8652 10.9975 11.7311 10.9746 11.6036 10.9301L11.5758 10.9204L11.555 10.9412L10.3507 12.1456C10.3507 12.1456 10.3507 12.1456 10.3507 12.1456C10.125 12.3711 9.81907 12.4978 9.50005 12.4978C9.18102 12.4978 8.87506 12.3711 8.64944 12.1456L8.53319 12.0293L8.50006 11.9962L8.46692 12.0293L6.49754 13.9968L6.49751 13.9968C6.43221 14.0622 6.35466 14.1141 6.26931 14.1495C6.18395 14.1849 6.09245 14.2031 6.00005 14.2031H5.99999C5.92456 14.2032 5.84963 14.1909 5.77817 14.1668L5.778 14.1668L1.278 12.6668L1.27797 12.6667C1.16422 12.6289 1.06203 12.5626 0.98111 12.4742C0.900191 12.3857 0.843228 12.2781 0.815634 12.1614C0.78804 12.0447 0.790731 11.923 0.82345 11.8076C0.85617 11.6923 0.917831 11.5873 1.00258 11.5025L4.4707 8.03311L4.50357 8.00023L4.47096 7.9671L4.35659 7.85085L4.35632 7.85058C4.13077 7.62496 4.00407 7.319 4.00407 6.99997C4.00407 6.68095 4.13077 6.37498 4.35632 6.14936L5.56132 4.94437L5.58213 4.92355L5.57243 4.89576C5.49785 4.68231 5.48493 4.45217 5.53515 4.23171C5.58537 4.01126 5.6967 3.80941 5.85636 3.64932L8.75319 0.751243C8.7532 0.751241 8.7532 0.751239 8.7532 0.751236C8.88531 0.619135 9.06448 0.544922 9.2513 0.544922C9.43812 0.544922 9.6173 0.619138 9.7494 0.751243C9.88151 0.883349 9.95572 1.06252 9.95572 1.24935C9.95572 1.43617 9.88151 1.61535 9.74941 1.74745L7.02941 4.46682L6.99625 4.49997L7.0294 4.53312L11.9669 9.47062L12 9.50376L12.0332 9.47062L14.7513 6.75249L14.7514 6.75244C14.8167 6.68689 14.8943 6.63488 14.9798 6.59939C15.0653 6.5639 15.1569 6.54563 15.2494 6.54563C15.342 6.54563 15.4336 6.5639 15.5191 6.59939C15.6045 6.63488 15.6821 6.68689 15.7475 6.75244ZM5.78273 12.6863L5.81023 12.6955L5.83071 12.675L7.47071 11.0331L7.50382 11L7.47069 10.9668L5.53319 9.02933L5.50006 8.99619L5.46692 9.02931L2.85504 11.6393L2.80136 11.693L2.87336 11.7169L5.78273 12.6863ZM9.46691 10.9706L9.50006 11.0038L9.53319 10.9706L10.4707 10.0331L10.5038 9.99997L10.4707 9.96683L6.53319 6.02933L6.50005 5.99618L6.4669 6.02933L5.5294 6.96683L5.49632 6.99991L5.52934 7.03305L5.99746 7.50305L5.99754 7.50313L9.46691 10.9706Z" fill="current-color" stroke="current-color" stroke-width="0.09375"/>
</svg>
