<svg width="13" height="69" viewBox="0 0 13 69" fill="none" xmlns="http://www.w3.org/2000/svg">
<path d="M2.11905 1C2.05291 1 2 2.22744 2 3.76173C2 5.29603 2.05291 6.52347 2.11905 6.52347C2.18519 6.52347 2.2381 5.29603 2.2381 3.76173C2.2381 2.22744 2.18519 1 2.11905 1Z" fill="white"/>
<path d="M7 69L12.2489 58.715L0.717373 59.3118L7 69ZM3 3.76173C3 3.00401 3.0131 2.32867 3.03379 1.84857C3.04427 1.6056 3.05609 1.42736 3.06733 1.31779C3.0735 1.25757 3.07673 1.24656 3.07306 1.26379C3.07292 1.26445 3.06084 1.32683 3.0257 1.40867C3.00996 1.44535 2.96426 1.54737 2.87072 1.65601C2.7839 1.75686 2.53378 2 2.11905 2V0C1.70018 0 1.44595 0.245541 1.35505 0.351124C1.25743 0.464508 1.20769 0.573607 1.18792 0.619646C1.14474 0.720219 1.12474 0.810471 1.11683 0.847688C1.09761 0.938034 1.08585 1.0349 1.07776 1.11373C1.06048 1.28225 1.04667 1.50676 1.03565 1.76244C1.01336 2.27963 1 2.98515 1 3.76173H3ZM2.11905 2C1.70431 2 1.45419 1.75686 1.36737 1.65601C1.27384 1.54737 1.22814 1.44535 1.21239 1.40867C1.17725 1.32683 1.16517 1.26445 1.16503 1.26379C1.16137 1.24656 1.16459 1.25757 1.17077 1.31779C1.18201 1.42736 1.19383 1.6056 1.2043 1.84857C1.225 2.32867 1.2381 3.00401 1.2381 3.76173H3.2381C3.2381 2.98515 3.22474 2.27963 3.20245 1.76244C3.19142 1.50676 3.17762 1.28225 3.16033 1.11373C3.15225 1.0349 3.14049 0.938034 3.12127 0.847688C3.11335 0.810471 3.09335 0.720219 3.05017 0.619646C3.03041 0.573607 2.98066 0.464508 2.88304 0.351124C2.79215 0.245541 2.53792 0 2.11905 0V2ZM1.2381 3.76173C1.2381 4.51945 1.225 5.1948 1.2043 5.67489C1.19383 5.91787 1.18201 6.09611 1.17077 6.20568C1.16459 6.26589 1.16137 6.2769 1.16503 6.25968C1.16517 6.25902 1.17725 6.19664 1.21239 6.11479C1.22814 6.07812 1.27383 5.9761 1.36737 5.86745C1.45419 5.76661 1.70431 5.52347 2.11905 5.52347V7.52347C2.53792 7.52347 2.79215 7.27792 2.88304 7.17234C2.98066 7.05896 3.03041 6.94986 3.05017 6.90382C3.09335 6.80325 3.11335 6.71299 3.12127 6.67578C3.14049 6.58543 3.15225 6.48856 3.16033 6.40973C3.17762 6.24121 3.19142 6.0167 3.20245 5.76103C3.22474 5.24383 3.2381 4.53831 3.2381 3.76173H1.2381ZM2.11905 5.52347C2.53378 5.52347 2.7839 5.76661 2.87072 5.86745C2.96426 5.9761 3.00996 6.07812 3.0257 6.11479C3.06084 6.19664 3.07292 6.25902 3.07306 6.25968C3.07673 6.2769 3.0735 6.26589 3.06733 6.20568C3.05609 6.09611 3.04427 5.91787 3.03379 5.67489C3.0131 5.1948 3 4.51945 3 3.76173H1C1 4.53831 1.01336 5.24383 1.03565 5.76103C1.04667 6.0167 1.06048 6.24121 1.07776 6.40973C1.08585 6.48856 1.09761 6.58543 1.11683 6.67578C1.12474 6.71299 1.14474 6.80325 1.18792 6.90382C1.20769 6.94986 1.25743 7.05896 1.35505 7.17234C1.44595 7.27792 1.70018 7.52347 2.11905 7.52347V5.52347ZM1.11905 6.52347C1.11905 20.5246 1.85272 28.2888 2.77557 35.3885C3.69657 42.4739 4.79352 48.8188 5.53715 60.0806L7.53281 59.9488C6.78369 48.604 5.67267 42.1606 4.75889 35.1307C3.84696 28.1151 3.11905 20.437 3.11905 6.52347H1.11905Z" fill="#3818D9"/>
</svg>
