<svg width="16" height="16" viewBox="0 0 16 16" fill="none" xmlns="http://www.w3.org/2000/svg">
<path d="M10.0406 4.20312H10.0068L9.99616 4.23518L7.49616 11.7352L7.47559 11.7969H7.54063H9C9.18648 11.7969 9.36532 11.871 9.49718 12.0028C9.62905 12.1347 9.70312 12.3135 9.70312 12.5C9.70312 12.6865 9.62905 12.8653 9.49718 12.9972C9.36532 13.129 9.18648 13.2031 9 13.2031H4C3.81352 13.2031 3.63468 13.129 3.50282 12.9972C3.37095 12.8653 3.29688 12.6865 3.29688 12.5C3.29688 12.3135 3.37095 12.1347 3.50282 12.0028C3.63468 11.871 3.81352 11.7969 4 11.7969H5.95937H5.99316L6.00384 11.7648L8.50384 4.26482L8.52441 4.20312H8.45938H7C6.81352 4.20312 6.63468 4.12905 6.50282 3.99718C6.37095 3.86532 6.29688 3.68648 6.29688 3.5C6.29688 3.31352 6.37095 3.13468 6.50282 3.00282C6.63468 2.87095 6.81352 2.79688 7 2.79688H12C12.1865 2.79688 12.3653 2.87095 12.4972 3.00282C12.629 3.13468 12.7031 3.31352 12.7031 3.5C12.7031 3.68648 12.629 3.86532 12.4972 3.99718C12.3653 4.12905 12.1865 4.20312 12 4.20312H10.0406Z" fill="current-color" stroke="current-color" stroke-width="0.09375"/>
</svg>
