<svg width="16" height="16" viewBox="0 0 16 16" fill="none" xmlns="http://www.w3.org/2000/svg">
<path d="M5.46877 9.46999L9.46877 5.46999C9.53853 5.40022 9.62136 5.34488 9.71251 5.30713C9.80366 5.26937 9.90136 5.24994 10 5.24994C10.0987 5.24994 10.1964 5.26937 10.2875 5.30713C10.3787 5.34488 10.4615 5.40022 10.5313 5.46999C10.601 5.53975 10.6564 5.62258 10.6941 5.71373C10.7319 5.80488 10.7513 5.90258 10.7513 6.00124C10.7513 6.0999 10.7319 6.1976 10.6941 6.28875C10.6564 6.3799 10.601 6.46272 10.5313 6.53249L6.53127 10.5325C6.39037 10.6734 6.19928 10.7525 6.00002 10.7525C5.80076 10.7525 5.60966 10.6734 5.46877 10.5325C5.32787 10.3916 5.24872 10.2005 5.24872 10.0012C5.24872 9.80198 5.32787 9.61088 5.46877 9.46999ZM13.6563 2.34499C12.9523 1.64262 11.9985 1.24817 11.0041 1.24817C10.0097 1.24817 9.05585 1.64262 8.35189 2.34499L6.46939 4.22561C6.3285 4.36651 6.24934 4.55761 6.24934 4.75686C6.24934 4.85553 6.26877 4.95322 6.30653 5.04437C6.34429 5.13553 6.39963 5.21835 6.46939 5.28811C6.53916 5.35788 6.62198 5.41322 6.71313 5.45097C6.80429 5.48873 6.90198 5.50816 7.00064 5.50816C7.1999 5.50816 7.391 5.42901 7.53189 5.28811L9.41127 3.40936C9.83329 2.98725 10.4057 2.75008 11.0026 2.75002C11.5995 2.74997 12.172 2.98702 12.5941 3.40905C13.0162 3.83108 13.2534 4.4035 13.2534 5.00039C13.2535 5.59728 13.0164 6.16975 12.5944 6.59186L10.7125 8.46999C10.6428 8.53975 10.5874 8.62257 10.5497 8.71373C10.5119 8.80488 10.4925 8.90258 10.4925 9.00124C10.4925 9.0999 10.5119 9.1976 10.5497 9.28875C10.5874 9.3799 10.6428 9.46272 10.7125 9.53249C10.7823 9.60225 10.8651 9.65759 10.9563 9.69535C11.0474 9.7331 11.1451 9.75254 11.2438 9.75254C11.3424 9.75254 11.4401 9.7331 11.5313 9.69535C11.6224 9.65759 11.7053 9.60225 11.775 9.53249L13.655 7.65374C14.3577 6.94935 14.7522 5.99489 14.7519 4.99991C14.7515 4.00493 14.3564 3.05075 13.6531 2.34686L13.6563 2.34499ZM8.47002 10.7125L6.59064 12.5925C6.38164 12.8015 6.13352 12.9672 5.86045 13.0803C5.58739 13.1934 5.29472 13.2515 4.99917 13.2515C4.70362 13.2515 4.41097 13.1932 4.13793 13.0801C3.86488 12.967 3.6168 12.8012 3.40783 12.5922C2.98581 12.1701 2.74875 11.5976 2.74881 11.0007C2.74886 10.4038 2.98603 9.83139 3.40814 9.40936L5.28689 7.52999C5.35666 7.46022 5.412 7.3774 5.44975 7.28625C5.48751 7.1951 5.50694 7.0974 5.50694 6.99874C5.50694 6.90008 5.48751 6.80238 5.44975 6.71123C5.412 6.62008 5.35666 6.53725 5.28689 6.46749C5.21713 6.39772 5.13431 6.34238 5.04315 6.30463C4.952 6.26687 4.85431 6.24744 4.75564 6.24744C4.65698 6.24744 4.55928 6.26687 4.46813 6.30463C4.37698 6.34238 4.29416 6.39772 4.22439 6.46749L2.34689 8.34874C1.9986 8.69707 1.72233 9.11059 1.53385 9.56569C1.34538 10.0208 1.24838 10.5086 1.24841 11.0011C1.24847 11.996 1.64372 12.95 2.34721 13.6534C3.05069 14.3568 4.00479 14.752 4.99961 14.7519C5.99444 14.7518 6.94849 14.3566 7.65189 13.6531L9.53064 11.7737C9.67154 11.6328 9.75069 11.4417 9.75069 11.2425C9.75069 11.0432 9.67154 10.8521 9.53064 10.7112C9.38975 10.5703 9.19865 10.4912 8.99939 10.4912C8.80014 10.4912 8.60904 10.5703 8.46814 10.7112L8.47002 10.7125Z" fill="current-color"/>
</svg>
