<svg width="17" height="16" viewBox="0 0 17 16" fill="none" xmlns="http://www.w3.org/2000/svg">
<g id="linkedin">
<rect x="0.710938" y="0.5" width="15" height="15" rx="3.5" stroke="#3818D9"/>
<path id="linkedin_2" d="M6.01094 12H4.31094V6.65H6.01094V12ZM5.16094 5.9C4.61094 5.9 4.21094 5.5 4.21094 4.95C4.21094 4.4 4.66094 4 5.16094 4C5.71094 4 6.11094 4.4 6.11094 4.95C6.11094 5.5 5.71094 5.9 5.16094 5.9ZM12.2109 12H10.5109V9.1C10.5109 8.25 10.1609 8 9.66093 8C9.16093 8 8.66093 8.4 8.66093 9.15V12H6.96094V6.65H8.56094V7.4C8.71094 7.05 9.31093 6.5 10.1609 6.5C11.1109 6.5 12.1109 7.05 12.1109 8.7V12H12.2109Z" fill="#3818D9"/>
</g>
</svg>
