<svg width="14" height="14" viewBox="0 0 14 14" fill="none" xmlns="http://www.w3.org/2000/svg">
<rect x="0.5" y="0.5" width="13" height="13" rx="1.9" stroke="#3818D9"/>
<path d="M5.075 10.5H3.5875V5.81875H5.075V10.5ZM4.33125 5.1625C3.85 5.1625 3.5 4.8125 3.5 4.33125C3.5 3.85 3.89375 3.5 4.33125 3.5C4.8125 3.5 5.1625 3.85 5.1625 4.33125C5.1625 4.8125 4.8125 5.1625 4.33125 5.1625ZM10.5 10.5H9.0125V7.9625C9.0125 7.21875 8.70625 7 8.26875 7C7.83125 7 7.39375 7.35 7.39375 8.00625V10.5H5.90625V5.81875H7.30625V6.475C7.4375 6.16875 7.9625 5.6875 8.70625 5.6875C9.5375 5.6875 10.4125 6.16875 10.4125 7.6125V10.5H10.5Z" fill="#3818D9"/>
</svg>
