<svg width="14" height="14" viewBox="0 0 14 14" fill="none" xmlns="http://www.w3.org/2000/svg">
<g id="vuesax/linear/messages-2">
<g id="messages-2">
<path id="Vector" d="M10.7741 9.81753L11.0016 11.6608C11.06 12.145 10.5408 12.4833 10.1266 12.2325L7.68245 10.78C7.41412 10.78 7.15162 10.7625 6.89496 10.7275C7.32662 10.22 7.58328 9.57834 7.58328 8.88418C7.58328 7.22751 6.14828 5.88587 4.37495 5.88587C3.69828 5.88587 3.07412 6.07835 2.55495 6.41669C2.53745 6.27085 2.53162 6.12501 2.53162 5.97335C2.53162 3.31918 4.83578 1.16669 7.68245 1.16669C10.5291 1.16669 12.8333 3.31918 12.8333 5.97335C12.8333 7.54835 12.0225 8.94253 10.7741 9.81753Z" stroke="current-color" stroke-width="1.5" stroke-linecap="round" stroke-linejoin="round"/>
<path id="Vector_2" d="M7.58329 8.88417C7.58329 9.57834 7.32663 10.22 6.89496 10.7275C6.31746 11.4275 5.40163 11.8767 4.37496 11.8767L2.85246 12.7808C2.59579 12.9383 2.26912 12.7225 2.30412 12.425L2.44996 11.2759C1.66829 10.7334 1.16663 9.86417 1.16663 8.88417C1.16663 7.8575 1.71496 6.95335 2.55496 6.41668C3.07413 6.07835 3.69829 5.88586 4.37496 5.88586C6.14829 5.88586 7.58329 7.2275 7.58329 8.88417Z" stroke="current-color" stroke-width="1.5" stroke-linecap="round" stroke-linejoin="round"/>
</g>
</g>
</svg>
