<svg width="28" height="28" viewBox="0 0 28 28" fill="none" xmlns="http://www.w3.org/2000/svg">
<path fill-rule="evenodd" clip-rule="evenodd" d="M24.2482 6.79543C24.2482 7.32931 24.1635 7.81581 24.0067 8.25749C30.6475 11.4867 27.2291 21.9929 26.2284 24.6691C26.2008 24.743 26.0474 24.7146 26.0502 24.6373C26.0828 23.7488 25.9157 22.5026 25.179 21.3029C25.2011 21.4607 25.2125 21.6211 25.2125 21.7838C25.2125 24.0678 22.9756 25.9193 20.2163 25.9193C17.457 25.9193 15.2202 24.0678 15.2202 21.7838C15.2202 21.36 15.2971 20.9512 15.4402 20.5662C15.4003 20.5575 15.3582 20.5487 15.3145 20.5397C15.0251 20.4809 14.7211 20.4346 14.5185 20.4346C14.3168 20.4346 14.0249 20.4799 13.7497 20.5372C13.6991 20.5478 13.6508 20.5583 13.6059 20.5686C13.7485 20.953 13.8252 21.3612 13.8252 21.7842C13.8252 24.0682 11.5883 25.9198 8.82906 25.9198C6.27774 25.9198 4.17307 24.3368 3.87028 22.2927C3.35549 23.9905 3.34339 25.8313 3.43219 27.932C3.43497 27.9977 3.33281 28.0265 3.29314 27.9695C1.07009 24.7754 -0.978045 18.1603 0.502969 13.2828C1.82824 8.91809 5.54083 6.81464 7.87219 6.09342C8.29662 2.67025 11.7908 0 16.0386 0C20.5726 0 24.2482 3.04242 24.2482 6.79543ZM6.68971 18.0459C7.3382 17.7912 8.06352 17.6486 8.82906 17.6486C10.6198 17.6486 12.1905 18.4285 13.0725 19.6002C13.1672 19.5767 13.2959 19.5462 13.4425 19.5156C13.7354 19.4546 14.1532 19.3814 14.5185 19.3814C14.8829 19.3814 15.3122 19.4552 15.6142 19.5166C15.7545 19.5451 15.8794 19.5734 15.9755 19.5964C16.858 18.4266 18.4274 17.6483 20.2163 17.6483C20.4113 17.6483 20.6036 17.6575 20.7927 17.6755C19.073 15.9904 18.4024 13.638 18.1598 12.1587C12.4157 14.2163 8.86455 16.0995 6.68971 18.0459ZM23.6708 21.7838C23.6708 23.3636 22.1237 24.6436 20.2163 24.6436C18.309 24.6436 16.7618 23.3636 16.7618 21.7838C16.7618 20.204 18.309 18.9239 20.2163 18.9239C22.1237 18.9239 23.6708 20.204 23.6708 21.7838ZM12.2835 21.7842C12.2835 23.3641 10.7364 24.644 8.82906 24.644C6.92174 24.644 5.37461 23.3641 5.37461 21.7842C5.37461 20.2043 6.92174 18.9244 8.82906 18.9244C10.7364 18.9244 12.2835 20.2043 12.2835 21.7842Z" fill="#202020"/>
</svg>
