<svg width="16" height="16" viewBox="0 0 16 16" fill="none" xmlns="http://www.w3.org/2000/svg">
<g id="vuesax/linear/magicpen">
<g id="magicpen">
<path id="Vector" d="M2.33688 13.6666C2.89021 14.22 3.78354 14.22 4.33688 13.6666L13.0035 4.99996C13.5569 4.44663 13.5569 3.55329 13.0035 2.99996C12.4502 2.44663 11.5569 2.44663 11.0035 2.99996L2.33688 11.6666C1.78354 12.22 1.78354 13.1133 2.33688 13.6666Z" stroke="current-color" stroke-width="1.5" stroke-linecap="round" stroke-linejoin="round"/>
<path id="Vector_2" d="M12.0078 5.99341L10.0078 3.99341" stroke="current-color" stroke-width="1.5" stroke-linecap="round" stroke-linejoin="round"/>
<path id="Vector_3" d="M5.66406 1.62659L6.66406 1.33325L6.37073 2.33325L6.66406 3.33325L5.66406 3.03992L4.66406 3.33325L4.9574 2.33325L4.66406 1.33325L5.66406 1.62659Z" stroke="current-color" stroke-linecap="round" stroke-linejoin="round"/>
<path id="Vector_4" d="M3 5.62659L4 5.33325L3.70667 6.33325L4 7.33325L3 7.03992L2 7.33325L2.29333 6.33325L2 5.33325L3 5.62659Z" stroke="current-color" stroke-linecap="round" stroke-linejoin="round"/>
<path id="Vector_5" d="M13 8.96008L14 8.66675L13.7067 9.66675L14 10.6667L13 10.3734L12 10.6667L12.2933 9.66675L12 8.66675L13 8.96008Z" stroke="current-color" stroke-linecap="round" stroke-linejoin="round"/>
</g>
</g>
</svg>
