<svg width="16" height="16" viewBox="0 0 16 16" fill="none" xmlns="http://www.w3.org/2000/svg">
<path d="M11.6947 5.54001C12.6004 5.54001 13.3347 4.80576 13.3347 3.90001C13.3347 2.99426 12.6004 2.26001 11.6947 2.26001C10.7889 2.26001 10.0547 2.99426 10.0547 3.90001C10.0547 4.80576 10.7889 5.54001 11.6947 5.54001Z" stroke="#3818D9" stroke-width="1.5" stroke-miterlimit="10" stroke-linecap="round" stroke-linejoin="round"/>
<path d="M4.30797 5.54001C5.21372 5.54001 5.94797 4.80576 5.94797 3.90001C5.94797 2.99426 5.21372 2.26001 4.30797 2.26001C3.40223 2.26001 2.66797 2.99426 2.66797 3.90001C2.66797 4.80576 3.40223 5.54001 4.30797 5.54001Z" stroke="#3818D9" stroke-width="1.5" stroke-miterlimit="10" stroke-linecap="round" stroke-linejoin="round"/>
<path d="M11.6947 13.74C12.6004 13.74 13.3347 13.0057 13.3347 12.1C13.3347 11.1942 12.6004 10.46 11.6947 10.46C10.7889 10.46 10.0547 11.1942 10.0547 12.1C10.0547 13.0057 10.7889 13.74 11.6947 13.74Z" stroke="#3818D9" stroke-width="1.5" stroke-miterlimit="10" stroke-linecap="round" stroke-linejoin="round"/>
<path d="M4.30797 13.74C5.21372 13.74 5.94797 13.0057 5.94797 12.1C5.94797 11.1942 5.21372 10.46 4.30797 10.46C3.40223 10.46 2.66797 11.1942 2.66797 12.1C2.66797 13.0057 3.40223 13.74 4.30797 13.74Z" stroke="#3818D9" stroke-width="1.5" stroke-miterlimit="10" stroke-linecap="round" stroke-linejoin="round"/>
</svg>
