<svg width="13" height="12" viewBox="0 0 13 12" fill="none" xmlns="http://www.w3.org/2000/svg">
<path d="M9.16797 9.21487H7.16797L4.94296 10.6949C4.61296 10.9149 4.16797 10.6799 4.16797 10.2799V9.21487C2.66797 9.21487 1.66797 8.21487 1.66797 6.71487V3.71484C1.66797 2.21484 2.66797 1.21484 4.16797 1.21484H9.16797C10.668 1.21484 11.668 2.21484 11.668 3.71484V6.71487C11.668 8.21487 10.668 9.21487 9.16797 9.21487Z" stroke="#EC7912" stroke-width="1.5" stroke-miterlimit="10" stroke-linecap="round" stroke-linejoin="round"/>
<path d="M6.66983 5.67969V5.57471C6.66983 5.23471 6.87984 5.0547 7.08984 4.9097C7.29484 4.7697 7.49982 4.5897 7.49982 4.2597C7.49982 3.7997 7.12983 3.42969 6.66983 3.42969C6.20983 3.42969 5.83984 3.7997 5.83984 4.2597" stroke="#EC7912" stroke-width="1.5" stroke-linecap="round" stroke-linejoin="round"/>
<path d="M6.66572 6.875H6.67022" stroke="#EC7912" stroke-width="1.5" stroke-linecap="round" stroke-linejoin="round"/>
</svg>
