<svg width="14" height="14" viewBox="0 0 14 14" fill="none" xmlns="http://www.w3.org/2000/svg">
<path d="M4.95829 11.0834H4.66663C2.33329 11.0834 1.16663 10.5 1.16663 7.58335V4.66669C1.16663 2.33335 2.33329 1.16669 4.66663 1.16669H9.33329C11.6666 1.16669 12.8333 2.33335 12.8333 4.66669V7.58335C12.8333 9.91669 11.6666 11.0834 9.33329 11.0834H9.04163C8.86079 11.0834 8.68579 11.1709 8.57496 11.3167L7.69996 12.4834C7.31496 12.9967 6.68496 12.9967 6.29996 12.4834L5.42496 11.3167C5.33163 11.1884 5.11579 11.0834 4.95829 11.0834Z" stroke="#3818D9" stroke-width="1.5" stroke-miterlimit="10" stroke-linecap="round" stroke-linejoin="round"/>
<path d="M9.33131 6.41667H9.33655" stroke="#3818D9" stroke-width="2" stroke-linecap="round" stroke-linejoin="round"/>
<path d="M6.99732 6.41667H7.00256" stroke="#3818D9" stroke-width="2" stroke-linecap="round" stroke-linejoin="round"/>
<path d="M4.66346 6.41667H4.6687" stroke="#3818D9" stroke-width="2" stroke-linecap="round" stroke-linejoin="round"/>
</svg>
