<svg width="16" height="16" viewBox="0 0 16 16" fill="none" xmlns="http://www.w3.org/2000/svg">
<g id="vuesax/linear/notification">
<g id="notification">
<path id="Vector" d="M8.01242 1.94C5.80575 1.94 4.01242 3.73334 4.01242 5.94V7.86667C4.01242 8.27334 3.83908 8.89334 3.63242 9.24L2.86575 10.5133C2.39242 11.3 2.71908 12.1733 3.58575 12.4667C6.45908 13.4267 9.55908 13.4267 12.4324 12.4667C13.2391 12.2 13.5924 11.2467 13.1524 10.5133L12.3857 9.24C12.1857 8.89334 12.0124 8.27334 12.0124 7.86667V5.94C12.0124 3.74 10.2124 1.94 8.01242 1.94Z" stroke="#3818D9" stroke-width="1.5" stroke-miterlimit="10" stroke-linecap="round"/>
<path id="Vector_2" d="M9.24792 2.13333C9.04125 2.07333 8.82792 2.02667 8.60792 2C7.96792 1.92 7.35458 1.96667 6.78125 2.13333C6.97458 1.64 7.45458 1.29333 8.01458 1.29333C8.57458 1.29333 9.05458 1.64 9.24792 2.13333Z" stroke="#3818D9" stroke-width="1.5" stroke-miterlimit="10" stroke-linecap="round" stroke-linejoin="round"/>
<path id="Vector_3" d="M10.0117 12.7067C10.0117 13.8067 9.11172 14.7067 8.01172 14.7067C7.46505 14.7067 6.95838 14.48 6.59838 14.12C6.23838 13.76 6.01172 13.2533 6.01172 12.7067" stroke="#3818D9" stroke-width="1.5" stroke-miterlimit="10"/>
</g>
</g>
</svg>
