<svg width="16" height="17" viewBox="0 0 16 17" fill="none" xmlns="http://www.w3.org/2000/svg">
<g id="vuesax/linear/notification">
<g id="notification">
<path id="Vector" d="M8.01242 2.44C5.80575 2.44 4.01242 4.23334 4.01242 6.44V8.36667C4.01242 8.77334 3.83908 9.39334 3.63242 9.74L2.86575 11.0133C2.39242 11.8 2.71908 12.6733 3.58575 12.9667C6.45908 13.9267 9.55908 13.9267 12.4324 12.9667C13.2391 12.7 13.5924 11.7467 13.1524 11.0133L12.3857 9.74C12.1857 9.39334 12.0124 8.77334 12.0124 8.36667V6.44C12.0124 4.24 10.2124 2.44 8.01242 2.44Z" stroke="#202020" stroke-width="1.5" stroke-miterlimit="10" stroke-linecap="round"/>
<path id="Vector_2" d="M9.24792 2.63333C9.04125 2.57333 8.82792 2.52667 8.60792 2.5C7.96792 2.42 7.35458 2.46667 6.78125 2.63333C6.97458 2.14 7.45458 1.79333 8.01458 1.79333C8.57458 1.79333 9.05458 2.14 9.24792 2.63333Z" stroke="#202020" stroke-width="1.5" stroke-miterlimit="10" stroke-linecap="round" stroke-linejoin="round"/>
<path id="Vector_3" d="M10.0117 13.2067C10.0117 14.3067 9.11172 15.2067 8.01172 15.2067C7.46505 15.2067 6.95838 14.98 6.59838 14.62C6.23838 14.26 6.01172 13.7533 6.01172 13.2067" stroke="#202020" stroke-width="1.5" stroke-miterlimit="10"/>
</g>
</g>
</svg>
