<svg width="17" height="16" viewBox="0 0 17 16" fill="none" xmlns="http://www.w3.org/2000/svg">
<g id="vuesax/linear/profile">
<g id="profile">
            <path id="Vector"
                d="M8.60671 7.24666C8.54004 7.23999 8.46004 7.23999 8.38671 7.24666C6.80004 7.19333 5.54004 5.89333 5.54004 4.29333C5.54004 2.65999 6.86004 1.33333 8.50004 1.33333C10.1334 1.33333 11.46 2.65999 11.46 4.29333C11.4534 5.89333 10.1934 7.19333 8.60671 7.24666Z"
                stroke="current-color" stroke-width="1.5" stroke-linecap="round"
                stroke-linejoin="round" />
            <path id="Vector_2"
                d="M5.27348 9.70667C3.66014 10.7867 3.66014 12.5467 5.27348 13.62C7.10681 14.8467 10.1135 14.8467 11.9468 13.62C13.5601 12.54 13.5601 10.78 11.9468 9.70667C10.1201 8.48667 7.11348 8.48667 5.27348 9.70667Z"
                stroke="current-color" stroke-width="1.5" stroke-linecap="round"
                stroke-linejoin="round" />
</g>
</g>
</svg>
