<svg width="17" height="16" viewBox="0 0 17 16" fill="none" xmlns="http://www.w3.org/2000/svg">
<g id="vuesax/linear/profile-2user">
<g id="profile-2user">
<path id="Vector" d="M6.60671 7.24666C6.54004 7.23999 6.46004 7.23999 6.38671 7.24666C4.80004 7.19333 3.54004 5.89333 3.54004 4.29333C3.54004 2.65999 4.86004 1.33333 6.50004 1.33333C8.13337 1.33333 9.46004 2.65999 9.46004 4.29333C9.45337 5.89333 8.19337 7.19333 6.60671 7.24666Z" stroke="current-color" stroke-width="1.5" stroke-linecap="round" stroke-linejoin="round"/>
<path id="Vector_2" d="M11.4402 2.66667C12.7335 2.66667 13.7735 3.71334 13.7735 5.00001C13.7735 6.26001 12.7735 7.28667 11.5268 7.33334C11.4735 7.32667 11.4135 7.32667 11.3535 7.33334" stroke="current-color" stroke-width="1.5" stroke-linecap="round" stroke-linejoin="round"/>
<path id="Vector_3" d="M3.27348 9.70667C1.66014 10.7867 1.66014 12.5467 3.27348 13.62C5.10681 14.8467 8.11348 14.8467 9.94681 13.62C11.5601 12.54 11.5601 10.78 9.94681 9.70667C8.12014 8.48667 5.11348 8.48667 3.27348 9.70667Z" stroke="current-color" stroke-width="1.5" stroke-linecap="round" stroke-linejoin="round"/>
<path id="Vector_4" d="M12.7266 13.3333C13.2066 13.2333 13.6599 13.04 14.0332 12.7533C15.0732 11.9733 15.0732 10.6867 14.0332 9.90666C13.6666 9.62666 13.2199 9.43999 12.7466 9.33333" stroke="current-color" stroke-width="1.5" stroke-linecap="round" stroke-linejoin="round"/>
</g>
</g>
</svg>
