<svg width="10" height="10" viewBox="0 0 10 10" fill="none" xmlns="http://www.w3.org/2000/svg">
<path id="Vector" d="M9.42865 0.000231348C9.40796 0.000885259 9.38732 0.0026956 9.36684 0.00565385H6.66317C6.5896 0.00461326 6.51654 0.0182069 6.44826 0.0456446C6.37998 0.0730823 6.31784 0.113817 6.26544 0.165481C6.21304 0.217145 6.17143 0.278709 6.14303 0.346594C6.11463 0.414479 6.1 0.487332 6.1 0.560918C6.1 0.634505 6.11463 0.707358 6.14303 0.775243C6.17143 0.843128 6.21304 0.904691 6.26544 0.956356C6.31784 1.00802 6.37998 1.04875 6.44826 1.07619C6.51654 1.10363 6.5896 1.11722 6.66317 1.11618H8.09905L2.939 6.27624C2.88571 6.3274 2.84316 6.38869 2.81385 6.4565C2.78454 6.52432 2.76906 6.5973 2.76831 6.67117C2.76755 6.74504 2.78155 6.81832 2.80947 6.88672C2.8374 6.95511 2.87869 7.01725 2.93093 7.06949C2.98317 7.12173 3.0453 7.16302 3.1137 7.19094C3.18209 7.21886 3.25537 7.23286 3.32925 7.23211C3.40312 7.23136 3.4761 7.21587 3.54391 7.18656C3.61173 7.15725 3.67301 7.11471 3.72418 7.06142L8.88423 1.90136V3.33724C8.88319 3.41082 8.89679 3.48387 8.92422 3.55215C8.95166 3.62043 8.9924 3.68258 9.04406 3.73498C9.09572 3.78738 9.15729 3.82899 9.22517 3.85739C9.29306 3.88579 9.36591 3.90041 9.4395 3.90041C9.51308 3.90041 9.58594 3.88579 9.65382 3.85739C9.72171 3.82899 9.78327 3.78738 9.83493 3.73498C9.8866 3.68258 9.92733 3.62043 9.95477 3.55215C9.98221 3.48387 9.9958 3.41082 9.99476 3.33724V0.631411C10.0058 0.551467 9.99932 0.470073 9.97571 0.392897C9.95211 0.315721 9.91197 0.244618 9.85808 0.184537C9.80419 0.124457 9.73786 0.0768448 9.6637 0.0450147C9.58953 0.0131846 9.50932 -0.00209789 9.42865 0.000231348ZM1.11053 0.00565385C0.50359 0.00565385 0 0.509244 0 1.11618V8.88989C0 9.49683 0.50359 10.0004 1.11053 10.0004H8.88423C9.49117 10.0004 9.99476 9.49683 9.99476 8.88989V5.5583C9.9958 5.48472 9.98221 5.41167 9.95477 5.34339C9.92733 5.27511 9.8866 5.21296 9.83493 5.16056C9.78327 5.10816 9.72171 5.06655 9.65382 5.03815C9.58594 5.00975 9.51308 4.99513 9.4395 4.99513C9.36591 4.99513 9.29306 5.00975 9.22517 5.03815C9.15729 5.06655 9.09572 5.10816 9.04406 5.16056C8.9924 5.21296 8.95166 5.27511 8.92422 5.34339C8.89679 5.41167 8.88319 5.48472 8.88423 5.5583V8.88989H1.11053V1.11618H4.44212C4.5157 1.11722 4.58875 1.10363 4.65703 1.07619C4.72531 1.04875 4.78745 1.00802 4.83985 0.956356C4.89225 0.904691 4.93386 0.843128 4.96226 0.775243C4.99066 0.707358 5.00529 0.634505 5.00529 0.560918C5.00529 0.487332 4.99066 0.414479 4.96226 0.346594C4.93386 0.278709 4.89225 0.217145 4.83985 0.165481C4.78745 0.113817 4.72531 0.0730823 4.65703 0.0456446C4.58875 0.0182069 4.5157 0.00461326 4.44212 0.00565385H1.11053Z" fill="#006FD5"/>
</svg>
