<svg width="28" height="28" viewBox="0 0 28 28" fill="none" xmlns="http://www.w3.org/2000/svg">
<path d="M26.4524 7.57916C26.5035 7.45137 26.5546 7.3108 26.6058 7.18301C27.7686 4.16717 27.9603 1.50913 27.9986 0.767951C28.0115 0.563487 27.9347 0.359023 27.7814 0.218454C27.6409 0.0778854 27.4364 -0.0115682 27.2319 0.00121081C26.4907 0.0395478 23.8327 0.244012 20.8169 1.39412C20.6763 1.44524 20.5485 1.49635 20.4079 1.56025C18.4912 0.563487 16.3059 0.0139906 13.9929 0.0139906C6.26168 0.0139906 0 6.2757 0 14.007C0 21.7383 6.26168 28 13.9929 28C21.7242 28 27.9859 21.7383 27.9859 14.007C28.0115 11.6812 27.4491 9.49601 26.4524 7.57916ZM27.2703 0.550708C27.3725 0.550708 27.462 0.640161 27.462 0.742393C27.4236 1.4708 27.2319 4.03938 26.1073 6.96577C24.8934 4.87001 23.1426 3.11929 21.0469 1.90528C23.9861 0.78073 26.5546 0.589045 27.2703 0.550708Z" fill="#415896"/>
<path d="M27.2734 0.551147C25.8294 0.615042 16.9352 1.33067 12.6543 8.84472C10.2646 8.19299 9.49791 9.24087 9.49791 9.24087L6.08594 12.6529L10.2007 13.1002C10.3541 13.1129 10.4947 13.1896 10.6097 13.2918C10.763 13.4452 10.8397 13.688 10.7886 13.9052C10.6736 14.4931 10.5714 15.1192 10.4947 15.7582L11.3637 16.6272L12.2326 17.4961C12.8716 17.4195 13.4978 17.33 14.0856 17.2022C14.3155 17.1511 14.5328 17.2278 14.699 17.3811C14.814 17.4961 14.8779 17.6367 14.8906 17.7901L15.3379 21.9049L18.7626 18.5185C18.7626 18.5185 19.8106 17.7517 19.1588 15.362C26.66 11.0683 27.3757 2.18686 27.4523 0.742832C27.4779 0.6406 27.3884 0.551147 27.2734 0.551147ZM19.9255 8.09076C19.1972 7.36236 19.1972 6.17391 19.9255 5.44551C20.6539 4.71711 21.8423 4.71711 22.5708 5.44551C23.2992 6.17391 23.2992 7.36236 22.5708 8.09076C21.8423 8.81916 20.6539 8.81916 19.9255 8.09076Z" fill="white"/>
<path d="M12.6543 8.84444C10.2646 8.19271 9.49791 9.24059 9.49791 9.24059L6.08594 12.6526L10.2007 13.0998C10.3541 13.1126 10.4947 13.1893 10.6097 13.2915C10.763 13.4449 10.8397 13.6877 10.7886 13.9049C10.6736 14.4927 10.5714 15.1189 10.4947 15.7579L11.3637 16.6268L12.2326 17.4958C12.8716 17.4191 13.4978 17.3297 14.0856 17.2019C14.3155 17.1508 14.5328 17.2274 14.699 17.3808C14.814 17.4958 14.8779 17.6364 14.8906 17.7897L15.3379 21.9046L18.7626 18.5181C18.7626 18.5181 19.8106 17.7514 19.1588 15.3617C26.66 11.068 27.3757 2.18658 27.4523 0.742554L12.6543 8.84444ZM19.9255 8.09048C19.1972 7.36207 19.1972 6.17363 19.9255 5.44522C20.6539 4.71682 21.8423 4.71682 22.5708 5.44522C23.2992 6.17363 23.2992 7.36207 22.5708 8.09048C21.8423 8.81888 20.6539 8.81888 19.9255 8.09048Z" fill="white"/>
<path d="M12.2403 17.5085L11.3714 16.6395L10.5024 15.7705L2.375 21.7511C2.87337 22.505 3.46121 23.2207 4.13849 23.8852C4.80299 24.5497 5.51862 25.1375 6.27257 25.6487L12.2403 17.5085Z" fill="#F5BC41"/>
</svg>
