<svg width="16" height="16" viewBox="0 0 16 16" fill="none" xmlns="http://www.w3.org/2000/svg">
<g id="Rocket launch" clip-path="url(#clip0_132_3805)">
<g id="Group">
<g id="Group_2">
<path id="Vector" d="M6.12749 4.23336C4.76749 5.76002 3.83416 7.95336 3.74749 8.16002L2.24082 7.51336C1.80749 7.32669 1.70082 6.76002 2.03416 6.42669L4.04082 4.42002C4.35416 4.10669 4.80749 3.96669 5.24749 4.05336L6.12749 4.23336ZM7.12082 11.0067C7.32083 11.2067 7.61416 11.26 7.86749 11.14C8.64082 10.78 10.3008 9.93336 11.3742 8.86002C14.4342 5.80002 14.4608 3.30669 14.2808 2.24002C14.2342 1.97336 14.0208 1.76002 13.7542 1.71336C12.6875 1.53336 10.1942 1.56002 7.13416 4.62002C6.06082 5.69336 5.22082 7.35336 4.85416 8.12669C4.73416 8.38002 4.79416 8.68002 4.98749 8.87336L7.12082 11.0067ZM11.7675 9.87336C10.2408 11.2334 8.04749 12.1667 7.84083 12.2534L8.48749 13.76C8.67416 14.1934 9.24082 14.3 9.57416 13.9667L11.5808 11.96C11.8942 11.6467 12.0342 11.1934 11.9475 10.7534L11.7675 9.87336ZM5.96082 11.6067C6.09416 12.3134 5.86082 12.9667 5.41416 13.4134C4.90082 13.9267 3.30749 14.3067 2.27416 14.5067C1.81416 14.5934 1.40749 14.1867 1.49416 13.7267C1.69416 12.6934 2.06749 11.1 2.58749 10.5867C3.03416 10.14 3.68749 9.90669 4.39416 10.04C5.17416 10.1867 5.81416 10.8267 5.96082 11.6067ZM8.66749 6.00002C8.66749 5.26669 9.26749 4.66669 10.0008 4.66669C10.7342 4.66669 11.3342 5.26669 11.3342 6.00002C11.3342 6.73336 10.7342 7.33336 10.0008 7.33336C9.26749 7.33336 8.66749 6.73336 8.66749 6.00002Z" fill="#3818D9"/>
</g>
</g>
</g>
<defs>
<clipPath id="clip0_132_3805">
<rect width="16" height="16" fill="white"/>
</clipPath>
</defs>
</svg>
