<svg width="16" height="16" viewBox="0 0 16 16" fill="none" xmlns="http://www.w3.org/2000/svg">
<path d="M7.9987 7.66634C8.72092 7.66634 9.34314 7.91079 9.86536 8.39967C10.3876 8.88856 10.6987 9.49412 10.7987 10.2163C10.8209 10.3497 10.882 10.458 10.982 10.5413C11.082 10.6247 11.1987 10.6663 11.332 10.6663C11.4654 10.6663 11.5848 10.6219 11.6904 10.533C11.7959 10.4441 11.8376 10.333 11.8154 10.1997C11.7043 9.19967 11.2904 8.36079 10.5737 7.68301C9.85703 7.00523 8.9987 6.66634 7.9987 6.66634C6.9987 6.66634 6.14036 7.00523 5.4237 7.68301C4.70703 8.36079 4.29314 9.19967 4.18203 10.1997C4.15981 10.333 4.20148 10.4441 4.30703 10.533C4.41259 10.6219 4.53203 10.6663 4.66536 10.6663C4.7987 10.6663 4.91536 10.6247 5.01536 10.5413C5.11536 10.458 5.17648 10.3497 5.1987 10.2163C5.2987 9.49412 5.60981 8.88856 6.13203 8.39967C6.65425 7.91079 7.27648 7.66634 7.9987 7.66634ZM7.03203 5.01634C7.13203 4.92745 7.17925 4.81356 7.1737 4.67467C7.16814 4.53579 7.10981 4.4219 6.9987 4.33301C6.88759 4.24412 6.76536 4.20523 6.63203 4.21634C6.4987 4.22745 6.37648 4.27745 6.26536 4.36634C6.08759 4.5219 5.90148 4.65245 5.70703 4.75801C5.51259 4.86356 5.30425 4.95523 5.08203 5.03301C4.9487 5.08856 4.84036 5.1719 4.75703 5.28301C4.6737 5.39412 4.64314 5.5219 4.66536 5.66634C4.68759 5.81079 4.75425 5.9219 4.86536 5.99967C4.97648 6.07745 5.09314 6.09412 5.21536 6.04967C5.5487 5.93856 5.87092 5.7969 6.18203 5.62467C6.49314 5.45245 6.77648 5.24967 7.03203 5.01634ZM8.96536 5.01634C9.22092 5.24967 9.4987 5.44967 9.7987 5.61634C10.0987 5.78301 10.4154 5.9219 10.7487 6.03301C10.882 6.07745 11.007 6.06356 11.1237 5.99134C11.2404 5.91912 11.3098 5.81079 11.332 5.66634C11.3543 5.5219 11.3209 5.39412 11.232 5.28301C11.1431 5.1719 11.032 5.08856 10.8987 5.03301C10.6876 4.95523 10.4848 4.86079 10.2904 4.74967C10.0959 4.63856 9.90981 4.51079 9.73203 4.36634C9.62092 4.27745 9.4987 4.22745 9.36536 4.21634C9.23203 4.20523 9.10981 4.24412 8.9987 4.33301C8.88759 4.4219 8.82925 4.53579 8.8237 4.67467C8.81814 4.81356 8.86536 4.92745 8.96536 5.01634ZM7.9987 14.6663C7.07648 14.6663 6.20981 14.4913 5.3987 14.1413C4.58759 13.7913 3.88203 13.3163 3.28203 12.7163C2.68203 12.1163 2.20703 11.4108 1.85703 10.5997C1.50703 9.78856 1.33203 8.9219 1.33203 7.99967C1.33203 7.07745 1.50703 6.21079 1.85703 5.39967C2.20703 4.58856 2.68203 3.88301 3.28203 3.28301C3.88203 2.68301 4.58759 2.20801 5.3987 1.85801C6.20981 1.50801 7.07648 1.33301 7.9987 1.33301C8.92092 1.33301 9.78759 1.50801 10.5987 1.85801C11.4098 2.20801 12.1154 2.68301 12.7154 3.28301C13.3154 3.88301 13.7904 4.58856 14.1404 5.39967C14.4904 6.21079 14.6654 7.07745 14.6654 7.99967C14.6654 8.9219 14.4904 9.78856 14.1404 10.5997C13.7904 11.4108 13.3154 12.1163 12.7154 12.7163C12.1154 13.3163 11.4098 13.7913 10.5987 14.1413C9.78759 14.4913 8.92092 14.6663 7.9987 14.6663ZM7.9987 13.333C9.48759 13.333 10.7487 12.8163 11.782 11.783C12.8154 10.7497 13.332 9.48856 13.332 7.99967C13.332 6.51079 12.8154 5.24967 11.782 4.21634C10.7487 3.18301 9.48759 2.66634 7.9987 2.66634C6.50981 2.66634 5.2487 3.18301 4.21536 4.21634C3.18203 5.24967 2.66536 6.51079 2.66536 7.99967C2.66536 9.48856 3.18203 10.7497 4.21536 11.783C5.2487 12.8163 6.50981 13.333 7.9987 13.333Z" fill="#FC5555"/>
</svg>
