<svg width="28" height="28" viewBox="0 0 28 28" fill="none" xmlns="http://www.w3.org/2000/svg">
<g id="vuesax/linear/setting-2">
<g id="setting-2">
<path id="Vector" d="M14 17.5C15.933 17.5 17.5 15.933 17.5 14C17.5 12.067 15.933 10.5 14 10.5C12.067 10.5 10.5 12.067 10.5 14C10.5 15.933 12.067 17.5 14 17.5Z" stroke="current-color" stroke-width="2.4" stroke-miterlimit="10" stroke-linecap="round" stroke-linejoin="round"/>
<path id="Vector_2" d="M2.3335 15.0267V12.9733C2.3335 11.76 3.32516 10.7567 4.55016 10.7567C6.66183 10.7567 7.52516 9.26333 6.4635 7.43167C5.85683 6.38167 6.2185 5.01667 7.28016 4.41L9.2985 3.255C10.2202 2.70667 11.4102 3.03333 11.9585 3.955L12.0868 4.17667C13.1368 6.00833 14.8635 6.00833 15.9252 4.17667L16.0535 3.955C16.6018 3.03333 17.7918 2.70667 18.7135 3.255L20.7318 4.41C21.7935 5.01667 22.1552 6.38167 21.5485 7.43167C20.4868 9.26333 21.3502 10.7567 23.4618 10.7567C24.6752 10.7567 25.6785 11.7483 25.6785 12.9733V15.0267C25.6785 16.24 24.6868 17.2433 23.4618 17.2433C21.3502 17.2433 20.4868 18.7367 21.5485 20.5683C22.1552 21.63 21.7935 22.9833 20.7318 23.59L18.7135 24.745C17.7918 25.2933 16.6018 24.9667 16.0535 24.045L15.9252 23.8233C14.8752 21.9917 13.1485 21.9917 12.0868 23.8233L11.9585 24.045C11.4102 24.9667 10.2202 25.2933 9.2985 24.745L7.28016 23.59C6.2185 22.9833 5.85683 21.6183 6.4635 20.5683C7.52516 18.7367 6.66183 17.2433 4.55016 17.2433C3.32516 17.2433 2.3335 16.24 2.3335 15.0267Z" stroke="current-color" stroke-width="2.4" stroke-miterlimit="10" stroke-linecap="round" stroke-linejoin="round"/>
</g>
</g>
</svg>
