<svg width="28" height="28" viewBox="0 0 28 28" fill="none" xmlns="http://www.w3.org/2000/svg">
<rect width="28" height="28" rx="14" fill="white"/>
<path fill-rule="evenodd" clip-rule="evenodd" d="M10.266 0C8.71824 0.0011417 7.46559 1.25473 7.46673 2.79945C7.46559 4.34417 8.71939 5.59776 10.2672 5.5989H13.0676V2.80059C13.0688 1.25587 11.815 0.0022834 10.266 0C10.2672 0 10.2672 0 10.266 0ZM10.266 7.46673H2.80046C1.25266 7.46787 -0.00114085 8.72146 3.12634e-06 10.2662C-0.00228482 11.8109 1.25151 13.0645 2.79931 13.0668H10.266C11.8138 13.0656 13.0676 11.812 13.0665 10.2673C13.0676 8.72146 11.8138 7.46787 10.266 7.46673Z" fill="#36C5F0"/>
<path fill-rule="evenodd" clip-rule="evenodd" d="M27.9962 10.2662C27.9973 8.72146 26.7435 7.46787 25.1957 7.46673C23.6479 7.46787 22.3941 8.72146 22.3953 10.2662V13.0668H25.1957C26.7435 13.0656 27.9973 11.812 27.9962 10.2662ZM20.5295 10.2662V2.79945C20.5306 1.25587 19.2779 0.0022834 17.7301 0C16.1823 0.0011417 14.9285 1.25473 14.9297 2.79945V10.2662C14.9274 11.8109 16.1812 13.0645 17.729 13.0668C19.2768 13.0656 20.5306 11.812 20.5295 10.2662Z" fill="#2EB67D"/>
<path fill-rule="evenodd" clip-rule="evenodd" d="M17.7301 28C19.2779 27.9989 20.5317 26.7453 20.5306 25.2006C20.5317 23.6559 19.2779 22.4023 17.7301 22.4011H14.9297V25.2006C14.9285 26.7442 16.1823 27.9978 17.7301 28ZM17.7301 20.5322H25.1969C26.7447 20.531 27.9985 19.2774 27.9973 17.7327C27.9996 16.188 26.7458 14.9344 25.198 14.9321H17.7313C16.1835 14.9333 14.9297 16.1869 14.9308 17.7316C14.9297 19.2774 16.1823 20.531 17.7301 20.5322Z" fill="#ECB22E"/>
<path fill-rule="evenodd" clip-rule="evenodd" d="M7.82207e-07 17.7326C-0.00114319 19.2773 1.25265 20.5309 2.80045 20.532C4.34825 20.5309 5.60205 19.2773 5.60091 17.7326V14.9331H2.80045C1.25265 14.9342 -0.00114319 16.1878 7.82207e-07 17.7326ZM7.46673 17.7326V25.1993C7.46444 26.744 8.71824 27.9976 10.266 27.9999C11.8138 27.9987 13.0676 26.7451 13.0665 25.2004V17.7348C13.0688 16.1901 11.815 14.9365 10.2672 14.9342C8.71824 14.9342 7.46559 16.1878 7.46673 17.7326Z" fill="#E01E5A"/>
</svg>
