<svg width="14" height="14" viewBox="0 0 14 14" fill="none" xmlns="http://www.w3.org/2000/svg">
<path d="M6.99203 0.333008C3.31203 0.333008 0.332031 3.31967 0.332031 6.99967C0.332031 10.6797 3.31203 13.6663 6.99203 13.6663C10.6787 13.6663 13.6654 10.6797 13.6654 6.99967C13.6654 3.31967 10.6787 0.333008 6.99203 0.333008ZM4.66536 4.33301C5.2187 4.33301 5.66536 4.77967 5.66536 5.33301C5.66536 5.88634 5.2187 6.33301 4.66536 6.33301C4.11203 6.33301 3.66536 5.88634 3.66536 5.33301C3.66536 4.77967 4.11203 4.33301 4.66536 4.33301ZM10.1387 8.81301C9.53203 10.113 8.3587 10.9997 6.9987 10.9997C5.6387 10.9997 4.46536 10.113 3.8587 8.81301C3.75203 8.59301 3.91203 8.33301 4.1587 8.33301H9.8387C10.0854 8.33301 10.2454 8.59301 10.1387 8.81301ZM9.33203 6.33301C8.7787 6.33301 8.33203 5.88634 8.33203 5.33301C8.33203 4.77967 8.7787 4.33301 9.33203 4.33301C9.88536 4.33301 10.332 4.77967 10.332 5.33301C10.332 5.88634 9.88536 6.33301 9.33203 6.33301Z" fill="#29CC6A"/>
</svg>
