<svg width="21" height="20" viewBox="0 0 21 20" fill="none" xmlns="http://www.w3.org/2000/svg">
<path d="M10.49 0C4.97 0 0.5 4.48 0.5 10C0.5 15.52 4.97 20 10.49 20C16.02 20 20.5 15.52 20.5 10C20.5 4.48 16.02 0 10.49 0ZM13.72 15.39L10.5 13.45L7.28 15.39C6.9 15.62 6.43 15.28 6.53 14.85L7.38 11.19L4.55 8.74C4.22 8.45 4.4 7.9 4.84 7.86L8.58 7.54L10.04 4.09C10.21 3.68 10.79 3.68 10.96 4.09L12.42 7.53L16.16 7.85C16.6 7.89 16.78 8.44 16.44 8.73L13.61 11.18L14.46 14.85C14.56 15.28 14.1 15.62 13.72 15.39Z" fill="#4A3AFF"/>
</svg>
