<svg width="16" height="16" viewBox="0 0 16 16" fill="none" xmlns="http://www.w3.org/2000/svg">
<path d="M9.93398 1.33301H6.06732C5.61399 1.33301 4.97398 1.59968 4.65398 1.91968L1.92065 4.65302C1.60065 4.97302 1.33398 5.61301 1.33398 6.06635V9.933C1.33398 10.3863 1.60065 11.0263 1.92065 11.3463L4.65398 14.0797C4.97398 14.3997 5.61399 14.6663 6.06732 14.6663H9.93398C10.3873 14.6663 11.0273 14.3997 11.3473 14.0797L14.0806 11.3463C14.4006 11.0263 14.6673 10.3863 14.6673 9.933V6.06635C14.6673 5.61301 14.4006 4.97302 14.0806 4.65302L11.3473 1.91968C11.0273 1.59968 10.3873 1.33301 9.93398 1.33301Z" stroke="#FC5555" stroke-width="1.5" stroke-linecap="round" stroke-linejoin="round"/>
<path d="M3.29297 12.7196L12.7196 3.29297" stroke="#FC5555" stroke-width="1.5" stroke-linecap="round" stroke-linejoin="round"/>
</svg>
