<svg width="16" height="16" viewBox="0 0 16 16" fill="none" xmlns="http://www.w3.org/2000/svg">
<path d="M11.6163 8.70312H11.5135L11.5808 8.78072C11.9938 9.25673 12.2156 9.86901 12.2031 10.4991L12.2031 10.4991V10.5C12.2031 11.3854 11.7245 12.2391 10.8834 12.84L10.8833 12.84C10.1067 13.3961 9.08155 13.7031 8 13.7031C6.91845 13.7031 5.89331 13.3961 5.11666 12.84L5.11662 12.84C4.27546 12.2391 3.79688 11.3854 3.79688 10.5C3.79688 10.3135 3.87095 10.1347 4.00282 10.0028C4.13468 9.87095 4.31352 9.79688 4.5 9.79688C4.68648 9.79688 4.86532 9.87095 4.99718 10.0028C5.12905 10.1347 5.20312 10.3135 5.20312 10.5C5.20312 10.9965 5.53226 11.4467 6.04085 11.7703C6.55037 12.0945 7.24681 12.2969 8 12.2969C8.75319 12.2969 9.44963 12.0945 9.95915 11.7703C10.4677 11.4467 10.7969 10.9965 10.7969 10.5C10.7969 10.0866 10.6447 9.75788 10.285 9.4725C9.92876 9.18991 9.36908 8.94975 8.5541 8.7051L8.5547 8.70312H8.54062H2.5C2.31352 8.70312 2.13468 8.62905 2.00282 8.49718C1.87095 8.36532 1.79688 8.18648 1.79688 8C1.79688 7.81352 1.87095 7.63468 2.00282 7.50282C2.13468 7.37095 2.31352 7.29688 2.5 7.29688H13.5C13.6865 7.29688 13.8653 7.37095 13.9972 7.50282C14.129 7.63468 14.2031 7.81352 14.2031 8C14.2031 8.18648 14.129 8.36532 13.9972 8.49718C13.8653 8.62905 13.6865 8.70312 13.5 8.70312H11.6163ZM5.19156 5.99718C5.0597 6.12905 4.88086 6.20312 4.69438 6.20312C4.50789 6.20312 4.32905 6.12905 4.19719 5.99718C4.06533 5.86532 3.99125 5.68648 3.99125 5.5C3.99125 3.68192 5.70317 2.29688 8 2.29688C9.62749 2.29688 10.9764 2.99693 11.6134 4.1603C11.6922 4.3223 11.7059 4.50839 11.6515 4.68018C11.597 4.85232 11.4784 4.9969 11.3202 5.08396C11.162 5.17103 10.9764 5.19392 10.8019 5.14788C10.6276 5.10194 10.4777 4.99088 10.383 4.83764C9.98967 4.1223 9.09444 3.70312 8 3.70312C7.26402 3.70312 6.61542 3.8925 6.14939 4.21131C5.68302 4.53036 5.3975 4.98102 5.3975 5.5C5.3975 5.68648 5.32342 5.86532 5.19156 5.99718Z" fill="current-color" stroke="current-color" stroke-width="0.09375"/>
</svg>
