<svg width="16" height="16" viewBox="0 0 16 16" fill="none" xmlns="http://www.w3.org/2000/svg">
<g id="vuesax/linear/trash">
<g id="trash">
<path id="Vector" d="M14 3.98667C11.78 3.76667 9.54667 3.65334 7.32 3.65334C6 3.65334 4.68 3.72 3.36 3.85334L2 3.98667" stroke="#BA1717" stroke-width="1.5" stroke-linecap="round" stroke-linejoin="round"/>
<path id="Vector_2" d="M5.66699 3.31333L5.81366 2.44C5.92033 1.80666 6.00033 1.33333 7.12699 1.33333H8.87366C10.0003 1.33333 10.087 1.83333 10.187 2.44666L10.3337 3.31333" stroke="#BA1717" stroke-width="1.5" stroke-linecap="round" stroke-linejoin="round"/>
<path id="Vector_3" d="M12.5669 6.09334L12.1336 12.8067C12.0603 13.8533 12.0003 14.6667 10.1403 14.6667H5.86026C4.00026 14.6667 3.94026 13.8533 3.86693 12.8067L3.43359 6.09334" stroke="#BA1717" stroke-width="1.5" stroke-linecap="round" stroke-linejoin="round"/>
<path id="Vector_4" d="M6.88672 11H9.10672" stroke="#BA1717" stroke-width="1.5" stroke-linecap="round" stroke-linejoin="round"/>
<path id="Vector_5" d="M6.33301 8.33333H9.66634" stroke="#BA1717" stroke-width="1.5" stroke-linecap="round" stroke-linejoin="round"/>
</g>
</g>
</svg>
