<svg width="16" height="16" viewBox="0 0 16 16" fill="none" xmlns="http://www.w3.org/2000/svg">
<path d="M12.7031 14C12.7031 14.1865 12.629 14.3653 12.4972 14.4972C12.3653 14.629 12.1865 14.7031 12 14.7031H4C3.81352 14.7031 3.63468 14.629 3.50282 14.4972C3.37095 14.3653 3.29688 14.1865 3.29688 14C3.29688 13.8135 3.37095 13.6347 3.50282 13.5028C3.63468 13.371 3.81352 13.2969 4 13.2969H12C12.1865 13.2969 12.3653 13.371 12.4972 13.5028C12.629 13.6347 12.7031 13.8135 12.7031 14ZM10.9708 10.9708C10.1828 11.7588 9.11438 12.202 8 12.2031C6.88562 12.202 5.81721 11.7588 5.02922 10.9708C4.24122 10.1828 3.79802 9.11435 3.79688 7.99995V3.5C3.79688 3.31352 3.87095 3.13468 4.00282 3.00282C4.13468 2.87095 4.31352 2.79688 4.5 2.79688C4.68648 2.79688 4.86532 2.87095 4.99718 3.00282C5.12905 3.13468 5.20312 3.31352 5.20312 3.5V8C5.20312 8.74178 5.49779 9.45317 6.02231 9.97769C6.54683 10.5022 7.25822 10.7969 8 10.7969C8.74178 10.7969 9.45317 10.5022 9.97769 9.97769C10.5022 9.45317 10.7969 8.74178 10.7969 8V3.5C10.7969 3.31352 10.871 3.13468 11.0028 3.00282C11.1347 2.87095 11.3135 2.79688 11.5 2.79688C11.6865 2.79688 11.8653 2.87095 11.9972 3.00282C12.129 3.13468 12.2031 3.31352 12.2031 3.5V7.99995C12.202 9.11435 11.7588 10.1828 10.9708 10.9708Z" fill="current-color" stroke="current-color" stroke-width="0.09375"/>
</svg>
