<svg width="28" height="28" viewBox="0 0 28 28" fill="none" xmlns="http://www.w3.org/2000/svg">
<g id="vuesax/linear/user-tag">
<g id="user-tag">
<path id="Vector" d="M21 22.0033H20.1133C19.18 22.0033 18.2933 22.365 17.64 23.0183L15.645 24.99C14.735 25.8883 13.2534 25.8883 12.3434 24.99L10.3483 23.0183C9.69499 22.365 8.79667 22.0033 7.875 22.0033H7C5.06333 22.0033 3.5 20.4517 3.5 18.5384V5.81C3.5 3.89666 5.06333 2.34503 7 2.34503H21C22.9367 2.34503 24.5 3.89666 24.5 5.81V18.5384C24.5 20.44 22.9367 22.0033 21 22.0033Z" stroke="#3818D9" stroke-width="1.5" stroke-miterlimit="10" stroke-linecap="round" stroke-linejoin="round"/>
<g id="Group">
<path id="Vector_2" d="M13.9996 11.6667C15.5009 11.6667 16.718 10.4496 16.718 8.94832C16.718 7.44703 15.5009 6.23004 13.9996 6.23004C12.4983 6.23004 11.2812 7.44703 11.2812 8.94832C11.2812 10.4496 12.4983 11.6667 13.9996 11.6667Z" stroke="#3818D9" stroke-width="1.5" stroke-linecap="round" stroke-linejoin="round"/>
<path id="Vector_3" d="M18.6663 18.2699C18.6663 16.1699 16.578 14.4667 13.9997 14.4667C11.4213 14.4667 9.33301 16.1699 9.33301 18.2699" stroke="#3818D9" stroke-width="1.5" stroke-linecap="round" stroke-linejoin="round"/>
</g>
</g>
</g>
</svg>
