<svg width="14" height="14" viewBox="0 0 14 14" fill="none" xmlns="http://www.w3.org/2000/svg">
<path d="M13.8605 4.20005C13.8605 4.20005 13.7238 3.23481 13.3027 2.81099C12.7695 2.25317 12.1734 2.25044 11.9 2.21763C9.94219 2.07544 7.00273 2.07544 7.00273 2.07544H6.99726C6.99726 2.07544 4.05781 2.07544 2.1 2.21763C1.82656 2.25044 1.23047 2.25317 0.697266 2.81099C0.276172 3.23481 0.142187 4.20005 0.142187 4.20005C0.142187 4.20005 0 5.33481 0 6.46685V7.52778C0 8.65981 0.139453 9.79458 0.139453 9.79458C0.139453 9.79458 0.276172 10.7598 0.694531 11.1836C1.22773 11.7415 1.92773 11.7223 2.23945 11.7825C3.36055 11.8891 7 11.9219 7 11.9219C7 11.9219 9.94219 11.9165 11.9 11.777C12.1734 11.7442 12.7695 11.7415 13.3027 11.1836C13.7238 10.7598 13.8605 9.79458 13.8605 9.79458C13.8605 9.79458 14 8.66255 14 7.52778V6.46685C14 5.33481 13.8605 4.20005 13.8605 4.20005ZM5.55352 8.81567V4.88091L9.33516 6.85513L5.55352 8.81567Z" fill="current-color"/>
</svg>
