<svg width="46" height="12" viewBox="0 0 46 12" fill="none" xmlns="http://www.w3.org/2000/svg">
<g id="icons">
<g id="icons/zapier">
<path d="M11.2577 8.22268L11.2515 8.20291L15.1888 4.59839V2.86164H8.87205V4.59839H12.645L12.6512 4.61503L8.75245 8.22268V9.95947H15.2522V8.22268H11.2577Z" fill="#201515"/>
<path d="M19.1295 2.69613C18.4009 2.69613 17.8071 2.80602 17.3481 3.0258C16.9206 3.21734 16.5604 3.53292 16.3144 3.93161C16.079 4.33292 15.9312 4.77948 15.8808 5.24197L17.7974 5.51133C17.8667 5.10296 18.0054 4.81351 18.2133 4.64295C18.4498 4.46456 18.7412 4.37443 19.037 4.38816C19.4259 4.38816 19.7081 4.49216 19.8836 4.70015C20.0572 4.90814 20.1456 5.19621 20.1456 5.5758V5.76507H18.3028C17.3647 5.76507 16.6908 5.97307 16.2811 6.38905C15.8714 6.80504 15.6669 7.35415 15.6676 8.03637C15.6676 8.73522 15.8721 9.25523 16.2811 9.59629C16.6901 9.93744 17.2046 10.107 17.8245 10.1048C18.5933 10.1048 19.1847 9.84038 19.5986 9.31138C19.843 8.98626 20.0175 8.61416 20.1112 8.21836H20.1809L20.4451 9.95507H22.1819V5.55709C22.1819 4.64815 21.9423 3.9441 21.4633 3.44491C20.9841 2.94573 20.2063 2.69613 19.1295 2.69613ZM19.7369 8.11749C19.4613 8.34731 19.1005 8.46171 18.6512 8.46171C18.2809 8.46171 18.0237 8.39689 17.8795 8.26724C17.8093 8.2059 17.7533 8.12984 17.7158 8.04447C17.6782 7.9591 17.6599 7.8665 17.6622 7.77325C17.658 7.68532 17.6719 7.59746 17.7029 7.51504C17.7338 7.43263 17.7811 7.35736 17.8421 7.29383C17.908 7.23202 17.9857 7.18421 18.0707 7.15329C18.1556 7.12237 18.2458 7.10897 18.3361 7.11391H20.1487V7.23351C20.1524 7.40256 20.1172 7.57019 20.0458 7.72346C19.9743 7.87673 19.8687 8.01155 19.7369 8.11749Z" fill="#201515"/>
<path d="M32.6833 2.86164H30.6315V9.96044H32.6833V2.86164Z" fill="#201515"/>
<path d="M44.7973 2.86164C44.2177 2.86164 43.7608 3.06616 43.4267 3.47522C43.1867 3.76919 43.0044 4.20355 42.8796 4.7783H42.8193L42.551 2.86164H40.7986V9.95947H42.8505V6.31953C42.8505 5.86057 42.958 5.50871 43.1729 5.26397C43.3878 5.01923 43.7844 4.89686 44.3626 4.89686H45.1415V2.86164H44.7973Z" fill="#201515"/>
<path d="M38.7636 3.09367C38.2845 2.80872 37.6804 2.66659 36.951 2.66728C35.8029 2.66728 34.9043 2.99418 34.2554 3.64798C33.6065 4.30177 33.282 5.20307 33.282 6.35189C33.2655 7.04644 33.4171 7.73469 33.724 8.35798C34.0049 8.91341 34.4424 9.37439 34.9824 9.68392C35.5259 9.99806 36.1724 10.1554 36.9218 10.1561C37.5701 10.1561 38.1116 10.0562 38.5462 9.85662C38.955 9.67728 39.3108 9.39617 39.58 9.04023C39.8363 8.69076 40.0266 8.29743 40.1415 7.8796L38.3736 7.38457C38.2992 7.65628 38.1559 7.90416 37.9577 8.10423C37.7579 8.30391 37.4234 8.40375 36.9541 8.40375C36.396 8.40375 35.98 8.24394 35.7061 7.92432C35.5076 7.69345 35.3828 7.36378 35.3276 6.93635H40.1686C40.1884 6.73668 40.1988 6.56924 40.1988 6.43405V5.99206C40.2104 5.39829 40.0878 4.80956 39.84 4.26987C39.608 3.77824 39.2328 3.36824 38.7636 3.09367ZM36.8917 4.35931C37.7237 4.35931 38.1954 4.76871 38.307 5.58751H35.364C35.4108 5.31431 35.5239 5.0568 35.6937 4.8377C35.9634 4.51808 36.3627 4.35862 36.8917 4.35931Z" fill="#201515"/>
<path d="M31.679 0.000665896C31.5247 -0.00458373 31.3708 0.0212492 31.2266 0.0766312C31.0825 0.132013 30.9509 0.215811 30.8398 0.323049C30.7302 0.431313 30.6443 0.56118 30.5876 0.704399C30.5308 0.847618 30.5044 1.00106 30.5102 1.15501C30.5046 1.30996 30.5311 1.46438 30.5878 1.60864C30.6447 1.75291 30.7306 1.88393 30.8402 1.99351C30.95 2.10309 31.081 2.18889 31.2253 2.24556C31.3697 2.30223 31.5241 2.32856 31.679 2.32289C31.8329 2.32871 31.9865 2.30239 32.1297 2.24563C32.2729 2.18888 32.4028 2.10291 32.511 1.99321C32.6183 1.88239 32.7021 1.751 32.7573 1.60695C32.8126 1.4629 32.8381 1.30918 32.8323 1.15501C32.8394 1.00176 32.8145 0.848713 32.7591 0.705643C32.7037 0.562573 32.6191 0.432626 32.5107 0.324096C32.4022 0.215567 32.2724 0.130841 32.1294 0.07533C31.9863 0.0198196 31.8333 -0.0052534 31.6801 0.00170687L31.679 0.000665896Z" fill="#201515"/>
<path d="M27.4418 2.66731C26.743 2.66731 26.1814 2.88674 25.7571 3.3256C25.443 3.65077 25.2125 4.13609 25.0655 4.78156H25L24.7317 2.8649H22.9793V12H25.0312V8.23738H25.1061C25.1687 8.48826 25.2565 8.73216 25.3681 8.96534C25.5417 9.34519 25.8264 9.66358 26.1845 9.87844C26.5559 10.0811 26.9741 10.1819 27.397 10.1707C28.2561 10.1707 28.9102 9.83619 29.3595 9.16709C29.8087 8.49806 30.0334 7.56452 30.0334 6.36648C30.0334 5.20934 29.8161 4.30353 29.3813 3.64904C28.9466 2.99456 28.3001 2.66731 27.4418 2.66731ZM27.6498 7.81099C27.4106 8.15765 27.0362 8.33098 26.5266 8.33098C26.3166 8.34067 26.1071 8.30017 25.9158 8.21282C25.7244 8.12547 25.5567 7.99379 25.4264 7.82867C25.1608 7.49519 25.0284 7.03864 25.0291 6.45903V6.32384C25.0291 5.73521 25.1615 5.28456 25.4264 4.97188C25.6912 4.6592 26.058 4.50458 26.5266 4.50806C27.0453 4.50806 27.422 4.67271 27.6571 5.00203C27.8921 5.33136 28.0096 5.79068 28.0096 6.37999C28.011 6.98941 27.8917 7.46641 27.6518 7.81099H27.6498Z" fill="#201515"/>
<path d="M7.95811 8.22253H0.859375V9.96138H7.95811V8.22253Z" fill="#FF4F00"/>
</g>
</g>
</svg>
